<?xml version="1.0" encoding="utf-8"?>
<svg width="40px" height="40px" viewBox="0 0 40 40" version="1.1" xmlns:xlink="http://www.w3.org/1999/xlink" xmlns="http://www.w3.org/2000/svg">
  <g id="pluginIcon">
    <g id="pluginIcon">
      <path d="M20 2L20 16C22.2091 16 24 17.7909 24 20L38 20L38 6.999Q38 6.87628 37.994 6.75371Q37.988 6.63114 37.9759 6.50901Q37.9639 6.38688 37.9459 6.26549Q37.9279 6.1441 37.9039 6.02374Q37.88 5.90338 37.8502 5.78434Q37.8204 5.6653 37.7847 5.54787Q37.7491 5.43043 37.7078 5.31489Q37.6664 5.19934 37.6195 5.08596Q37.5725 4.97259 37.52 4.86165Q37.4676 4.75072 37.4097 4.64249Q37.3519 4.53426 37.2888 4.429Q37.2257 4.32374 37.1575 4.2217Q37.0893 4.11967 37.0162 4.0211Q36.9431 3.92253 36.8653 3.82767Q36.7874 3.73281 36.705 3.64188Q36.6226 3.55095 36.5358 3.46417Q36.449 3.3774 36.3581 3.29499Q36.2672 3.21257 36.1723 3.13472Q36.0775 3.05687 35.9789 2.98377Q35.8803 2.91066 35.7783 2.84248Q35.6763 2.7743 35.571 2.71121Q35.4657 2.64812 35.3575 2.59028Q35.2493 2.53243 35.1383 2.47996Q35.0274 2.42749 34.914 2.38053Q34.8007 2.33356 34.6851 2.29222Q34.5696 2.25088 34.4521 2.21526Q34.3347 2.17963 34.2157 2.14981Q34.0966 2.12 33.9763 2.09605Q33.8559 2.07211 33.7345 2.05411Q33.6131 2.0361 33.491 2.02407Q33.3689 2.01204 33.2463 2.00602Q33.1237 2 33.001 2L20 2ZM29.5 6.5C27.2909 6.5 25.5 8.29086 25.5 10.5C25.5 12.7091 27.2909 14.5 29.5 14.5C31.7091 14.5 33.5 12.7091 33.5 10.5C33.5 8.29086 31.7091 6.5 29.5 6.5Z" id="Top-die-Intersect" fill="#DB5860" fill-rule="evenodd" stroke="none" />
      <path d="M38 20L24 20C24 22.2091 22.2091 24 20 24L20 38L33.001 38Q33.1237 38 33.2463 37.994Q33.3689 37.988 33.491 37.9759Q33.6131 37.9639 33.7345 37.9459Q33.8559 37.9279 33.9763 37.9039Q34.0966 37.88 34.2157 37.8502Q34.3347 37.8204 34.4521 37.7847Q34.5696 37.7491 34.6851 37.7078Q34.8007 37.6664 34.914 37.6195Q35.0274 37.5725 35.1383 37.52Q35.2493 37.4676 35.3575 37.4097Q35.4657 37.3519 35.571 37.2888Q35.6763 37.2257 35.7783 37.1575Q35.8803 37.0893 35.9789 37.0162Q36.0775 36.9431 36.1723 36.8653Q36.2672 36.7874 36.3581 36.705Q36.449 36.6226 36.5358 36.5358Q36.6226 36.449 36.705 36.3581Q36.7874 36.2672 36.8653 36.1723Q36.9431 36.0775 37.0162 35.9789Q37.0893 35.8803 37.1575 35.7783Q37.2257 35.6763 37.2888 35.571Q37.3519 35.4657 37.4097 35.3575Q37.4676 35.2493 37.52 35.1383Q37.5725 35.0274 37.6195 34.914Q37.6664 34.8007 37.7078 34.6851Q37.7491 34.5696 37.7847 34.4521Q37.8204 34.3347 37.8502 34.2157Q37.88 34.0966 37.9039 33.9763Q37.9279 33.8559 37.9459 33.7345Q37.9639 33.6131 37.9759 33.491Q37.988 33.3689 37.994 33.2463Q38 33.1237 38 33.001L38 20ZM25.5 29.5C25.5 27.2909 27.2909 25.5 29.5 25.5C31.7091 25.5 33.5 27.2909 33.5 29.5C33.5 31.7091 31.7091 33.5 29.5 33.5C27.2909 33.5 25.5 31.7091 25.5 29.5Z" id="Right-die-Intersect" fill="#EDA200" fill-rule="evenodd" stroke="none" />
      <path d="M20 38L20 24C17.7909 24 16 22.2091 16 20L2.00001 20L2.00001 33.001Q2.00001 33.1237 2.00603 33.2463Q2.01205 33.3689 2.02408 33.491Q2.03611 33.6131 2.05411 33.7345Q2.07212 33.8559 2.09606 33.9763Q2.12 34.0966 2.14982 34.2157Q2.17964 34.3347 2.21526 34.4521Q2.25089 34.5696 2.29223 34.6851Q2.33357 34.8007 2.38053 34.914Q2.4275 35.0274 2.47996 35.1383Q2.53243 35.2493 2.59028 35.3575Q2.64813 35.4657 2.71122 35.571Q2.77431 35.6763 2.84249 35.7783Q2.91067 35.8803 2.98377 35.9789Q3.05688 36.0775 3.13473 36.1723Q3.21258 36.2672 3.29499 36.3581Q3.37741 36.449 3.46418 36.5358Q3.55096 36.6226 3.64188 36.705Q3.73281 36.7874 3.82768 36.8653Q3.92254 36.9431 4.02111 37.0162Q4.11968 37.0893 4.22171 37.1575Q4.32375 37.2257 4.42901 37.2888Q4.53427 37.3519 4.64249 37.4097Q4.75072 37.4676 4.86166 37.52Q4.9726 37.5725 5.08597 37.6195Q5.19935 37.6664 5.31489 37.7078Q5.43044 37.7491 5.54787 37.7847Q5.66531 37.8204 5.78435 37.8502Q5.90339 37.88 6.02375 37.9039Q6.14411 37.9279 6.2655 37.9459Q6.38689 37.9639 6.50902 37.9759Q6.63115 37.988 6.75372 37.994Q6.87629 38 6.99901 38L20 38ZM10.5 25.5C8.29087 25.5 6.50001 27.2909 6.50001 29.5C6.50001 31.7091 8.29087 33.5 10.5 33.5C12.7091 33.5 14.5 31.7091 14.5 29.5C14.5 27.2909 12.7091 25.5 10.5 25.5Z" id="Bottom-die-Intersect" fill="#389FD6" fill-rule="evenodd" stroke="none" />
      <path d="M2 20L16 20C16 17.7909 17.7909 16 20 16L20 2L6.999 2Q6.87628 2 6.75371 2.00602Q6.63114 2.01204 6.50901 2.02407Q6.38688 2.0361 6.26549 2.05411Q6.1441 2.07211 6.02374 2.09605Q5.90338 2.12 5.78434 2.14981Q5.6653 2.17963 5.54787 2.21526Q5.43043 2.25088 5.31489 2.29222Q5.19934 2.33356 5.08596 2.38053Q4.97259 2.42749 4.86165 2.47996Q4.75072 2.53243 4.64249 2.59028Q4.53426 2.64812 4.429 2.71121Q4.32374 2.7743 4.2217 2.84248Q4.11967 2.91066 4.0211 2.98377Q3.92253 3.05687 3.82767 3.13472Q3.73281 3.21257 3.64188 3.29499Q3.55095 3.3774 3.46417 3.46417Q3.3774 3.55095 3.29499 3.64188Q3.21257 3.73281 3.13472 3.82767Q3.05687 3.92253 2.98377 4.0211Q2.91066 4.11967 2.84248 4.2217Q2.7743 4.32374 2.71121 4.429Q2.64812 4.53426 2.59028 4.64249Q2.53243 4.75072 2.47996 4.86165Q2.42749 4.97259 2.38053 5.08597Q2.33356 5.19934 2.29222 5.31489Q2.25088 5.43043 2.21526 5.54787Q2.17963 5.6653 2.14981 5.78434Q2.12 5.90338 2.09605 6.02374Q2.07211 6.1441 2.05411 6.26549Q2.0361 6.38689 2.02407 6.50901Q2.01204 6.63114 2.00602 6.75371Q2 6.87628 2 6.999L2 20ZM6.5 10.5C6.5 8.29086 8.29086 6.5 10.5 6.5C12.7091 6.5 14.5 8.29086 14.5 10.5C14.5 12.7091 12.7091 14.5 10.5 14.5C8.29086 14.5 6.5 12.7091 6.5 10.5Z" id="Left-die-Intersect" fill="#59A869" fill-rule="evenodd" stroke="none" />
    </g>
  </g>
</svg>