<?xml version="1.0" encoding="utf-8"?>
<svg width="16px" height="16px" viewBox="0 0 16 16" version="1.1" xmlns:xlink="http://www.w3.org/1999/xlink" xmlns="http://www.w3.org/2000/svg">
  <desc>Created with Lunacy</desc>
  <defs>
    <path d="M7 7L16 7L16 0L0 0L0 16L7.00002 16L7 7Z" id="path_1" />
    <clipPath id="mask_1">
      <use xlink:href="#path_1" />
    </clipPath>
  </defs>
  <g id="data-repeat-array">
    <g id="Repeat-instance" transform="translate(7 7)">
      <g id="Shape" transform="translate(-0.009690285 0.2070509)">
        <path d="M4.2895 0C3.04262 0 1.92619 0.583796 1.1767 1.50416L0 0.396683L0.178205 3.95107L3.57863 3.76479L2.08737 2.36126C2.61202 1.69966 3.40419 1.27826 4.29052 1.27826C5.58325 1.27826 6.67568 2.1747 7.02991 3.40533L8.30046 3.4517C7.93481 1.48484 6.27804 0 4.2895 0ZM4.2895 8.54243C5.53836 8.54243 6.65637 7.95677 7.40588 7.03386L8.58411 8.14279L8.40591 4.5884L5.00548 4.77468L6.4935 6.17516C5.96885 6.83663 5.17675 7.25794 4.29052 7.25794C2.97191 7.25794 1.86171 6.32525 1.53075 5.05658L0.264371 5.01035C0.599272 7.017 2.27397 8.54243 4.2895 8.54243Z" transform="matrix(0.9986295 0.05233596 -0.05233596 0.9986295 0.4470751 2.346933E-07)" id="Shape" fill="#6E6E6E" fill-rule="evenodd" stroke="none" />
      </g>
    </g>
    <g id="Mask-group">
      <path d="M7 7L16 7L16 0L0 0L0 16L7.00002 16L7 7Z" id="Array-mask" fill="none" stroke="none" />
      <g clip-path="url(#mask_1)">
        <g id="Array-instance">
          <g id="Group">
            <path d="M0 16L0 13.6L4 13.6L4 2.4L0 2.4L0 0L6.4 0L6.4 16L0 16L0 16Z" transform="translate(9.599998 0)" id="Right" fill="#6E6E6E" stroke="none" />
            <path d="M0 16L0 0L6.4 0L6.4 2.4L2.4 2.4L2.4 13.6L6.4 13.6L6.4 16L0 16L0 16Z" id="Left" fill="#6E6E6E" stroke="none" />
          </g>
        </g>
      </g>
    </g>
  </g>
</svg>