<?xml version="1.0" encoding="utf-8"?>
<svg width="16px" height="16px" viewBox="0 0 16 16" version="1.1" xmlns:xlink="http://www.w3.org/1999/xlink" xmlns="http://www.w3.org/2000/svg">
  <desc>Created with Lunacy</desc>
  <g id="data">
    <g id="pluginIcon">
      <path d="M7.2 7.2L7.2 4.999Q7.2 4.87628 7.19398 4.75371Q7.18796 4.63114 7.17593 4.50901Q7.1639 4.38689 7.14589 4.26549Q7.12789 4.1441 7.10395 4.02374Q7.08 3.90338 7.05019 3.78434Q7.02037 3.6653 6.98474 3.54787Q6.94912 3.43043 6.90778 3.31489Q6.86644 3.19934 6.81947 3.08597Q6.77251 2.97259 6.72004 2.86165Q6.66757 2.75072 6.60972 2.64249Q6.55187 2.53426 6.48878 2.429Q6.42569 2.32374 6.35752 2.2217Q6.28934 2.11967 6.21623 2.0211Q6.14313 1.92253 6.06528 1.82767Q5.98743 1.73281 5.90501 1.64188Q5.8226 1.55095 5.73583 1.46417Q5.64905 1.3774 5.55812 1.29499Q5.46719 1.21257 5.37233 1.13472Q5.27747 1.05687 5.1789 0.983766Q5.08033 0.910662 4.97829 0.842483Q4.87626 0.774305 4.771 0.711215Q4.66574 0.648125 4.55751 0.590276Q4.44928 0.532426 4.33835 0.479958Q4.22741 0.427489 4.11403 0.380526Q4.00066 0.333564 3.88511 0.292221Q3.76957 0.250879 3.65213 0.215255Q3.5347 0.179632 3.41566 0.149814Q3.29662 0.119996 3.17626 0.0960544Q3.0559 0.0721132 2.9345 0.0541066Q2.81311 0.0361001 2.69099 0.0240716Q2.56886 0.012043 2.44629 0.00602151Q2.32372 0 2.201 0L0 0L0 5.6C0.883656 5.6 1.6 6.31634 1.6 7.2L7.2 7.2ZM3.8 1.8C2.91634 1.8 2.2 2.51634 2.2 3.4C2.2 4.28365 2.91634 5 3.8 5C4.68366 5 5.4 4.28365 5.4 3.4C5.4 2.51634 4.68366 1.8 3.8 1.8Z" transform="translate(8 0.8)" id="Top-die-Intersect" fill="#DB5860" fill-rule="evenodd" stroke="none" />
      <path d="M7.2 0L7.2 2.201Q7.2 2.32372 7.19398 2.44629Q7.18796 2.56886 7.17593 2.69099Q7.1639 2.81312 7.14589 2.93451Q7.12789 3.0559 7.10395 3.17626Q7.08 3.29662 7.05019 3.41566Q7.02037 3.5347 6.98474 3.65213Q6.94912 3.76957 6.90778 3.88511Q6.86644 4.00066 6.81947 4.11403Q6.77251 4.22741 6.72004 4.33835Q6.66757 4.44928 6.60972 4.55751Q6.55187 4.66574 6.48878 4.771Q6.42569 4.87626 6.35752 4.97829Q6.28934 5.08033 6.21623 5.1789Q6.14313 5.27747 6.06528 5.37233Q5.98743 5.46719 5.90501 5.55812Q5.8226 5.64905 5.73583 5.73583Q5.64905 5.8226 5.55812 5.90501Q5.46719 5.98743 5.37233 6.06528Q5.27747 6.14313 5.1789 6.21623Q5.08033 6.28934 4.97829 6.35752Q4.87626 6.42569 4.771 6.48878Q4.66574 6.55187 4.55751 6.60972Q4.44928 6.66757 4.33835 6.72004Q4.22741 6.77251 4.11403 6.81947Q4.00066 6.86644 3.88511 6.90778Q3.76957 6.94912 3.65213 6.98474Q3.5347 7.02037 3.41566 7.05019Q3.29662 7.08 3.17626 7.10395Q3.0559 7.12789 2.9345 7.14589Q2.81311 7.1639 2.69099 7.17593Q2.56886 7.18796 2.44629 7.19398Q2.32372 7.2 2.201 7.2L0 7.2L0 1.6C0.883656 1.6 1.6 0.883656 1.6 0L7.2 0ZM2.2 3.8C2.2 2.91634 2.91634 2.2 3.8 2.2C4.68366 2.2 5.4 2.91634 5.4 3.8C5.4 4.68366 4.68366 5.4 3.8 5.4C2.91634 5.4 2.2 4.68366 2.2 3.8Z" transform="translate(8 8)" id="Right-die-Intersect" fill="#EDA200" fill-rule="evenodd" stroke="none" />
      <path d="M5.99851 7.2L3.7975 7.2Q3.67479 7.2 3.55221 7.19398Q3.42964 7.18796 3.30752 7.17593Q3.18539 7.1639 3.064 7.14589Q2.94261 7.12789 2.82225 7.10394Q2.70189 7.08 2.58285 7.05019Q2.4638 7.02037 2.34637 6.98474Q2.22894 6.94912 2.11339 6.90778Q1.99785 6.86643 1.88447 6.81947Q1.77109 6.77251 1.66016 6.72004Q1.54922 6.66757 1.44099 6.60972Q1.33276 6.55187 1.2275 6.48878Q1.12224 6.42569 1.02021 6.35752Q0.918171 6.28934 0.819603 6.21623Q0.721034 6.14313 0.626172 6.06528Q0.531309 5.98743 0.44038 5.90501Q0.349452 5.8226 0.262677 5.73583Q0.175902 5.64905 0.093489 5.55812Q0.0110763 5.46719 -0.0667756 5.37233Q-0.144627 5.27747 -0.217731 5.1789Q-0.290834 5.08033 -0.359013 4.97829Q-0.427192 4.87626 -0.490282 4.771Q-0.553372 4.66574 -0.611221 4.55751Q-0.66907 4.44928 -0.721539 4.33835Q-0.774008 4.22741 -0.82097 4.11403Q-0.867932 4.00066 -0.909275 3.88511Q-0.950618 3.76957 -0.986241 3.65213Q-1.02186 3.5347 -1.05168 3.41566Q-1.0815 3.29662 -1.10544 3.17625Q-1.12938 3.05589 -1.14739 2.9345Q-1.1654 2.81311 -1.17742 2.69099Q-1.18945 2.56886 -1.19547 2.44629Q-1.2015 2.32372 -1.2015 2.201L-1.2015 -2.22045e-16L4.40548 0L4.40548 0.000703335C4.40548 0.881284 5.11788 1.5957 5.99851 1.60052L5.99851 7.2ZM2.20274 2.20049C1.31798 2.20049 0.600746 2.91676 0.600746 3.80033C0.600746 4.6839 1.31798 5.40017 2.20274 5.40017C3.0875 5.40017 3.80473 4.6839 3.80473 3.80033C3.80473 2.91676 3.0875 2.20049 2.20274 2.20049Z" transform="translate(2.001495 8)" id="Bottom-die-Intersect" fill="#389FD6" fill-rule="evenodd" stroke="none" />
      <path d="M6 0L3.799 0Q3.67628 0 3.55371 0.00602151Q3.43114 0.012043 3.30901 0.0240715Q3.18688 0.0361001 3.06549 0.0541066Q2.9441 0.0721132 2.82374 0.0960544Q2.70338 0.119996 2.58434 0.149814Q2.4653 0.179632 2.34787 0.215255Q2.23043 0.250879 2.11489 0.292221Q1.99934 0.333564 1.88597 0.380526Q1.77259 0.427488 1.66165 0.479957Q1.55072 0.532426 1.44249 0.590276Q1.33426 0.648125 1.229 0.711215Q1.12374 0.774305 1.0217 0.842483Q0.919667 0.910662 0.821099 0.983765Q0.72253 1.05687 0.627668 1.13472Q0.532805 1.21257 0.441877 1.29499Q0.350948 1.3774 0.264173 1.46417Q0.177398 1.55095 0.0949852 1.64188Q0.0125725 1.73281 -0.0652793 1.82767Q-0.143131 1.92253 -0.216235 2.0211Q-0.289338 2.11967 -0.357517 2.2217Q-0.425695 2.32374 -0.488785 2.429Q-0.551875 2.53426 -0.609724 2.64249Q-0.667574 2.75072 -0.720042 2.86165Q-0.772511 2.97259 -0.819474 3.08596Q-0.866436 3.19934 -0.907779 3.31489Q-0.949121 3.43043 -0.984745 3.54787Q-1.02037 3.6653 -1.05019 3.78434Q-1.08 3.90338 -1.10395 4.02374Q-1.12789 4.1441 -1.14589 4.26549Q-1.1639 4.38688 -1.17593 4.50901Q-1.18796 4.63114 -1.19398 4.75371Q-1.2 4.87628 -1.2 4.999L-1.2 7.2L4.4 7.2C4.4 6.31634 5.11634 5.6 6 5.6L6 0ZM0.6 3.4C0.6 2.51634 1.31634 1.8 2.2 1.8C3.08366 1.8 3.8 2.51634 3.8 3.4C3.8 4.28365 3.08366 5 2.2 5C1.31634 5 0.6 4.28365 0.6 3.4Z" transform="translate(2 0.8)" id="Left-die-Intersect" fill="#59A869" fill-rule="evenodd" stroke="none" />
    </g>
  </g>
</svg>