<?xml version="1.0" encoding="utf-8"?>
<svg width="16px" height="16px" viewBox="0 0 16 16" version="1.1" xmlns:xlink="http://www.w3.org/1999/xlink" xmlns="http://www.w3.org/2000/svg">
  <desc>Created with Lunacy</desc>
  <defs>
    <path d="M8.999 7L16 7L16 0L0 0L0 16L7 16L7 8.999Q7 8.9008 7.00963 8.80307Q7.01925 8.70534 7.03841 8.60902Q7.05757 8.5127 7.08608 8.41872Q7.11459 8.32475 7.15217 8.23402Q7.18975 8.14329 7.23604 8.05668Q7.28234 7.97007 7.3369 7.88842Q7.39146 7.80677 7.45376 7.73085Q7.51606 7.65494 7.5855 7.5855Q7.65494 7.51606 7.73085 7.45376Q7.80676 7.39146 7.88842 7.3369Q7.97007 7.28234 8.05668 7.23604Q8.14329 7.18975 8.23402 7.15217Q8.32475 7.11459 8.41872 7.08608Q8.5127 7.05757 8.60902 7.03841Q8.70533 7.01926 8.80307 7.00963Q8.9008 7 8.999 7Z" id="path_1" />
    <clipPath id="mask_1">
      <use xlink:href="#path_1" />
    </clipPath>
  </defs>
  <g id="data-repeat-array_dark">
    <g id="Mask-group">
      <path d="M8.999 7L16 7L16 0L0 0L0 16L7 16L7 8.999Q7 8.9008 7.00963 8.80307Q7.01925 8.70534 7.03841 8.60902Q7.05757 8.5127 7.08608 8.41872Q7.11459 8.32475 7.15217 8.23402Q7.18975 8.14329 7.23604 8.05668Q7.28234 7.97007 7.3369 7.88842Q7.39146 7.80677 7.45376 7.73085Q7.51606 7.65494 7.5855 7.5855Q7.65494 7.51606 7.73085 7.45376Q7.80676 7.39146 7.88842 7.3369Q7.97007 7.28234 8.05668 7.23604Q8.14329 7.18975 8.23402 7.15217Q8.32475 7.11459 8.41872 7.08608Q8.5127 7.05757 8.60902 7.03841Q8.70533 7.01926 8.80307 7.00963Q8.9008 7 8.999 7Z" id="Rectangle" fill="none" stroke="none" />
      <g clip-path="url(#mask_1)">
        <g id="Array-instance">
          <g id="Array-instance">
            <g id="Group">
              <path d="M0 16L0 13.6L4 13.6L4 2.4L0 2.4L0 0L6.4 0L6.4 16L0 16L0 16Z" transform="translate(9.599998 0)" id="Right" fill="#AFB1B3" stroke="none" />
              <path d="M0 16L0 0L6.4 0L6.4 2.4L2.4 2.4L2.4 13.6L6.4 13.6L6.4 16L0 16L0 16Z" id="Left" fill="#AFB1B3" stroke="none" />
            </g>
          </g>
        </g>
      </g>
    </g>
    <g id="Repeat-instance" transform="translate(7 7)">
      <g id="Repeat-instance">
        <g id="Shape" transform="translate(-0.009690285 0.2070509)">
          <path d="M4.2895 0C3.04262 0 1.92619 0.583796 1.1767 1.50416L0 0.396683L0.178205 3.95107L3.57863 3.76479L2.08737 2.36126C2.61202 1.69966 3.40419 1.27826 4.29052 1.27826C5.58325 1.27826 6.67568 2.1747 7.02991 3.40533L8.30046 3.4517C7.93481 1.48484 6.27804 0 4.2895 0ZM4.2895 8.54243C5.53836 8.54243 6.65637 7.95677 7.40588 7.03386L8.58411 8.14279L8.40591 4.5884L5.00548 4.77468L6.4935 6.17516C5.96885 6.83663 5.17675 7.25794 4.29052 7.25794C2.97191 7.25794 1.86171 6.32525 1.53075 5.05658L0.264371 5.01035C0.599272 7.017 2.27397 8.54243 4.2895 8.54243Z" transform="matrix(0.9986295 0.05233596 -0.05233596 0.9986295 0.4470751 2.346933E-07)" id="Shape" fill="#AFB1B3" fill-rule="evenodd" stroke="none" />
        </g>
      </g>
    </g>
  </g>
</svg>