<?xml version="1.0" encoding="utf-8"?>
<svg width="16px" height="16px" viewBox="0 0 16 16" version="1.1" xmlns:xlink="http://www.w3.org/1999/xlink" xmlns="http://www.w3.org/2000/svg">
  <desc>Created with Lunacy</desc>
  <g id="data-repeat">
    <g id="Shape" transform="translate(-0.01722717 0.3680905)">
      <path d="M7.62579 0C5.40911 0 3.42433 1.03786 2.09192 2.67407L0 0.705214L0.316809 7.02413L6.36201 6.69297L3.71088 4.19779C4.64359 3.02163 6.05189 2.27246 7.6276 2.27246C9.92578 2.27246 11.8679 3.86613 12.4976 6.05391L14.7564 6.13636C14.1063 2.63971 11.161 0 7.62579 0ZM7.62578 15.1865C9.84598 15.1865 11.8336 14.1454 13.166 12.5046L15.2606 14.4761L14.9438 8.15715L8.89863 8.48831L11.544 10.9781C10.6113 12.154 9.20312 12.903 7.62759 12.903C5.2834 12.903 3.30971 11.2449 2.72133 8.98948L0.469992 8.9073C1.06537 12.4747 4.04261 15.1865 7.62578 15.1865Z" transform="matrix(0.9986295 0.05233596 -0.05233596 0.9986295 0.7947998 0)" id="Shape" fill="#6E6E6E" fill-rule="evenodd" stroke="none" />
    </g>
  </g>
</svg>