<?xml version="1.0" encoding="utf-8"?>
<svg width="16px" height="16px" viewBox="0 0 16 16" version="1.1" xmlns:xlink="http://www.w3.org/1999/xlink" xmlns="http://www.w3.org/2000/svg">
  <desc>Created with Lunacy</desc>
  <g id="data">
    <path d="M0 7C0 3.13401 3.13401 0 7 0C10.866 0 14 3.13401 14 7C14 10.866 10.866 14 7 14C3.13401 14 0 10.866 0 7Z" transform="translate(1 1)" id="Oval" fill="#59A869" fill-opacity="0.6" stroke="none" />
    <g id="rnd" fill="#000000" fill-opacity="0.8980392">
      <path d="M13.01 10.1L13.01 5.648L12.074 5.648L12.074 7.214Q11.726 6.824 11.108 6.824Q10.652 6.824 10.283 7.028Q9.914 7.232 9.704 7.61Q9.494 7.988 9.494 8.486Q9.494 8.984 9.704 9.362Q9.914 9.74 10.283 9.944Q10.652 10.148 11.108 10.148Q11.768 10.148 12.116 9.728L12.116 10.1L13.01 10.1ZM3.884 7.298Q4.052 7.064 4.337 6.944Q4.622 6.824 4.994 6.824L4.994 7.688Q4.838 7.676 4.784 7.676Q4.382 7.676 4.154 7.901Q3.926 8.126 3.926 8.576L3.926 10.1L2.99 10.1L2.99 6.872L3.884 6.872L3.884 7.298ZM7.538 6.824Q8.138 6.824 8.507 7.184Q8.876 7.544 8.876 8.252L8.876 10.1L7.94 10.1L7.94 8.396Q7.94 8.012 7.772 7.823Q7.604 7.634 7.286 7.634Q6.932 7.634 6.722 7.853Q6.512 8.072 6.512 8.504L6.512 10.1L5.576 10.1L5.576 6.872L6.47 6.872L6.47 7.25Q6.656 7.046 6.932 6.935Q7.208 6.824 7.538 6.824ZM11.858 9.137Q11.624 9.38 11.27 9.38Q10.91 9.38 10.676 9.137Q10.442 8.894 10.442 8.486Q10.442 8.078 10.676 7.835Q10.91 7.592 11.27 7.592Q11.624 7.592 11.858 7.835Q12.092 8.078 12.092 8.486Q12.092 8.894 11.858 9.137Z" />
    </g>
  </g>
</svg>