<?xml version="1.0" encoding="utf-8"?>
<svg width="16px" height="16px" viewBox="0 0 16 16" version="1.1" xmlns:xlink="http://www.w3.org/1999/xlink" xmlns="http://www.w3.org/2000/svg">
  <desc>Created with Lunacy</desc>
  <defs>
    <path d="M13 8L16 8L16 0L0 0L0 16L8 16L8 14L11 11L11.5 9L13 8Z" id="path_1" />
    <clipPath id="mask_1">
      <use xlink:href="#path_1" />
    </clipPath>
  </defs>
  <g id="decimal-settings_dark">
    <g id="ActionSettings-instance">
      <g id="Mask-group">
        <path d="M13 8L16 8L16 0L0 0L0 16L8 16L8 14L11 11L11.5 9L13 8Z" id="Action-mask" fill="none" stroke="none" />
        <g clip-path="url(#mask_1)">
          <g id="Action-instance">
            <g id="decimal">
              <path d="M0 7C0 3.13401 3.13401 0 7 0C10.866 0 14 3.13401 14 7C14 10.866 10.866 14 7 14C3.13401 14 0 10.866 0 7Z" transform="translate(1 1)" id="Oval" fill="#62B543" fill-opacity="0.6" stroke="none" />
              <g id="4.2" fill="#000000" fill-opacity="0.8980392">
                <path d="M12.455 10.1L12.455 9.308L10.649 9.308L11.615 8.396Q12.029 8.012 12.173 7.712Q12.317 7.412 12.317 7.07Q12.317 6.692 12.122 6.413Q11.927 6.134 11.576 5.981Q11.225 5.828 10.757 5.828Q10.199 5.828 9.767 6.035Q9.335 6.242 9.089 6.608L9.797 7.064Q9.947 6.854 10.169 6.749Q10.391 6.644 10.667 6.644Q10.997 6.644 11.168 6.779Q11.339 6.914 11.339 7.166Q11.339 7.34 11.249 7.517Q11.159 7.694 10.901 7.94L9.281 9.47L9.281 10.1L12.455 10.1ZM7.457 9.218L6.773 9.218L6.773 10.1L5.825 10.1L5.825 9.218L3.563 9.218L3.563 8.564L5.543 5.9L6.563 5.9L4.727 8.426L5.855 8.426L5.855 7.64L6.773 7.64L6.773 8.426L7.457 8.426L7.457 9.218ZM8.297 10.148Q8.051 10.148 7.883 9.98Q7.715 9.812 7.715 9.56Q7.715 9.302 7.883 9.143Q8.051 8.984 8.297 8.984Q8.543 8.984 8.711 9.143Q8.879 9.302 8.879 9.56Q8.879 9.812 8.711 9.98Q8.543 10.148 8.297 10.148Z" />
              </g>
            </g>
          </g>
        </g>
      </g>
      <g id="Settings-instance" transform="translate(9 9)">
        <g id="Settings-instance">
          <path d="M3.03149 2.73907C2.7548 1.97446 2.95783 1.11862 3.54851 0.559632C4.13919 0.000641137 5.00516 -0.155162 5.75374 0.16287L4.2679 1.64769L5.352 2.73141L6.83733 1.24659C7.15511 1.99484 6.99923 2.8602 6.4403 3.45063C5.88138 4.04106 5.02563 4.24436 4.26074 3.96842L1.22875 6.99834L0 5.77053L3.03149 2.73959L3.03149 2.73907Z" id="Shape" fill="#AFB1B3" stroke="none" />
        </g>
      </g>
    </g>
  </g>
</svg>