<?xml version="1.0" encoding="utf-8"?>
<svg width="16px" height="16px" viewBox="0 0 16 16" version="1.1" xmlns:xlink="http://www.w3.org/1999/xlink" xmlns="http://www.w3.org/2000/svg">
  <desc>Created with Lunacy</desc>
  <g id="decimal-array">
    <path d="M7 0C3.13401 0 0 3.13401 0 7C0 10.5265 2.60771 13.4439 6 13.9291L6 7L14 7C14 3.13401 10.866 0 7 0Z" transform="translate(1 1)" id="Oval-Difference" fill="#62B543" fill-opacity="0.6" fill-rule="evenodd" stroke="none" />
    <path d="M4.01 3.57L3.783 3.57L3.783 4.452L2.835 4.452L2.835 3.57L0.572998 3.57L0.572998 2.916L2.553 0.252001L3.573 0.252001L1.737 2.778L2.865 2.778L2.865 1.992L3.783 1.992L3.783 2.778L4.01 2.778L4.01 3.57ZM7.84747 2.352L8.99795 2.352Q9.11799 2.19944 9.183 2.064Q9.327 1.764 9.327 1.422Q9.327 1.044 9.132 0.765001Q8.937 0.486001 8.586 0.333002Q8.235 0.180001 7.767 0.180001Q7.209 0.180001 6.777 0.387002Q6.345 0.594002 6.099 0.960001L6.807 1.416Q6.957 1.206 7.179 1.101Q7.401 0.996001 7.677 0.996001Q8.007 0.996001 8.178 1.131Q8.349 1.266 8.349 1.518Q8.349 1.692 8.259 1.869Q8.169 2.046 7.911 2.292L7.84747 2.352Z" transform="translate(2.990002 5.647995)" id="Text-Difference" fill="#000000" fill-opacity="0.8980392" fill-rule="evenodd" stroke="none" />
    <g id="Array" transform="translate(7 7.000004)">
      <path d="M0 5.625L0 4.78125L1.40625 4.78125L1.40625 0.84375L0 0.84375L0 0L2.25 0L2.25 5.625L0 5.625L0 5.625Z" transform="translate(5.625 1.6875)" id="Right" fill="#6E6E6E" stroke="none" />
      <path d="M0 5.625L0 0L2.25 0L2.25 0.84375L0.84375 0.84375L0.84375 4.78125L2.25 4.78125L2.25 5.625L0 5.625L0 5.625Z" transform="translate(1.125 1.6875)" id="Left" fill="#6E6E6E" stroke="none" />
    </g>
  </g>
</svg>