<?xml version="1.0" encoding="utf-8"?>
<svg width="16px" height="16px" viewBox="0 0 16 16" version="1.1" xmlns:xlink="http://www.w3.org/1999/xlink" xmlns="http://www.w3.org/2000/svg">
  <desc>Created with Lunacy</desc>
  <defs>
    <path d="M16 10L16 0L6.14673e-08 0L0 16L10 16L9 15L8.5 13.5L8.5 9.5L9 8.5L9.5 8.5L10 9L12.5 8.5L15 9L16 10Z" id="path_1" />
    <clipPath id="mask_1">
      <use xlink:href="#path_1" />
    </clipPath>
  </defs>
  <g id="decimal-repeat_dark">
    <g id="ActionRepeat-instance">
      <g id="Mask-group">
        <path d="M16 10L16 0L6.14673e-08 0L0 16L10 16L9 15L8.5 13.5L8.5 9.5L9 8.5L9.5 8.5L10 9L12.5 8.5L15 9L16 10Z" id="Action-mask" fill="none" stroke="none" />
        <g clip-path="url(#mask_1)">
          <g id="Action-instance">
            <g id="decimal">
              <path d="M0 7C0 3.13401 3.13401 0 7 0C10.866 0 14 3.13401 14 7C14 10.866 10.866 14 7 14C3.13401 14 0 10.866 0 7Z" transform="translate(1 1)" id="Oval" fill="#62B543" fill-opacity="0.6" stroke="none" />
              <g id="4.2" fill="#000000" fill-opacity="0.8980392">
                <path d="M12.455 10.1L12.455 9.308L10.649 9.308L11.615 8.396Q12.029 8.012 12.173 7.712Q12.317 7.412 12.317 7.07Q12.317 6.692 12.122 6.413Q11.927 6.134 11.576 5.981Q11.225 5.828 10.757 5.828Q10.199 5.828 9.767 6.035Q9.335 6.242 9.089 6.608L9.797 7.064Q9.947 6.854 10.169 6.749Q10.391 6.644 10.667 6.644Q10.997 6.644 11.168 6.779Q11.339 6.914 11.339 7.166Q11.339 7.34 11.249 7.517Q11.159 7.694 10.901 7.94L9.281 9.47L9.281 10.1L12.455 10.1ZM7.457 9.218L6.773 9.218L6.773 10.1L5.825 10.1L5.825 9.218L3.563 9.218L3.563 8.564L5.543 5.9L6.563 5.9L4.727 8.426L5.855 8.426L5.855 7.64L6.773 7.64L6.773 8.426L7.457 8.426L7.457 9.218ZM8.297 10.148Q8.051 10.148 7.883 9.98Q7.715 9.812 7.715 9.56Q7.715 9.302 7.883 9.143Q8.051 8.984 8.297 8.984Q8.543 8.984 8.711 9.143Q8.879 9.302 8.879 9.56Q8.879 9.812 8.711 9.98Q8.543 10.148 8.297 10.148Z" />
              </g>
            </g>
          </g>
        </g>
      </g>
      <g id="Settings-instance" transform="translate(9.000008 9)">
        <g id="Repeat-instance">
          <g id="Shape" transform="translate(-0.007536888 0.1610396)">
            <path d="M3.33628 0C2.36649 0 1.49815 0.454063 0.915213 1.1699L0 0.308531L0.138604 3.07306L2.78338 2.92817L1.62351 1.83653C2.03157 1.32196 2.6477 0.994202 3.33707 0.994202C4.34253 0.994202 5.19219 1.69143 5.46771 2.64859L6.45591 2.68466C6.17152 1.15487 4.88292 0 3.33628 0ZM3.33628 6.64411C4.30762 6.64411 5.17718 6.1886 5.76013 5.47078L6.67653 6.33328L6.53793 3.56875L3.89315 3.71364L5.0505 4.8029C4.64244 5.31738 4.02636 5.64506 3.33707 5.64506C2.31149 5.64506 1.448 4.91964 1.19058 3.9329L0.205622 3.89694C0.466101 5.45767 1.76864 6.64411 3.33628 6.64411Z" transform="matrix(0.9986295 0.05233596 -0.05233596 0.9986295 0.347725 1.825392E-07)" id="Shape" fill="#AFB1B3" fill-rule="evenodd" stroke="none" />
          </g>
        </g>
      </g>
    </g>
  </g>
</svg>