<?xml version="1.0" encoding="utf-8"?>
<svg width="16px" height="16px" viewBox="0 0 16 16" version="1.1" xmlns:xlink="http://www.w3.org/1999/xlink" xmlns="http://www.w3.org/2000/svg">
  <desc>Created with Lunacy</desc>
  <g id="decimal-settings">
    <path d="M7 0C3.13401 0 0 3.13401 0 7C0 10.5265 2.60771 13.4439 6 13.9291L6 12L9 9L9 7L10 6L13.9291 6C13.4439 2.60771 10.5265 0 7 0Z" transform="translate(1 1)" id="Oval-Difference" fill="#62B543" fill-opacity="0.6" fill-rule="evenodd" stroke="none" />
    <path d="M6.291 4.071L6.291 3.822L7.01 3.14295L7.01 3.352L6.291 4.071ZM7.31342 1.04858Q7.2439 1.07031 7.179 1.101Q6.957 1.206 6.807 1.416L6.099 0.960001Q6.345 0.594002 6.777 0.387002Q7.209 0.180001 7.767 0.180001Q8.235 0.180001 8.586 0.333002Q8.60725 0.342266 8.62795 0.351998L8.01 0.351997L7.31342 1.04858ZM3.783 3.57L4.467 3.57L4.467 2.778L3.783 2.778L3.783 1.992L2.865 1.992L2.865 2.778L1.737 2.778L3.573 0.252001L2.553 0.252001L0.573002 2.916L0.573002 3.57L2.835 3.57L2.835 4.452L3.783 4.452L3.783 3.57ZM4.893 4.332Q5.061 4.5 5.307 4.5Q5.553 4.5 5.721 4.332Q5.889 4.164 5.889 3.912Q5.889 3.654 5.721 3.495Q5.553 3.336 5.307 3.336Q5.061 3.336 4.893 3.495Q4.725 3.654 4.725 3.912Q4.725 4.164 4.893 4.332Z" transform="translate(2.989998 6.648003)" id="Text-Difference" fill="#000000" fill-opacity="0.8980392" fill-rule="evenodd" stroke="none" />
    <g id="Settings" transform="translate(7 7)">
      <path d="M3.33619 3.01543C3.03169 2.17367 3.25513 1.23148 3.90518 0.616095C4.55523 0.000705823 5.50824 -0.170817 6.33206 0.179302L4.69688 1.81393L5.88994 3.00699L7.52456 1.37236C7.87429 2.1961 7.70274 3.14878 7.08764 3.79878C6.47253 4.44878 5.53077 4.67258 4.689 4.3688L1.35225 7.70443L0 6.35274L3.33619 3.01599L3.33619 3.01543Z" transform="translate(0.6975031 0.86175)" id="Shape" fill="#6E6E6E" stroke="none" />
    </g>
  </g>
</svg>