<?xml version="1.0" encoding="utf-8"?>
<svg width="16px" height="16px" viewBox="0 0 16 16" version="1.1" xmlns:xlink="http://www.w3.org/1999/xlink" xmlns="http://www.w3.org/2000/svg">
  <desc>Created with Lunacy</desc>
  <g id="integer-settings">
    <path d="M7 0C3.13401 0 0 3.13401 0 7C0 10.5265 2.60771 13.4439 6 13.9291L6 12L9 9L9 7L10 6L13.9291 6C13.4439 2.60771 10.5265 0 7 0Z" transform="translate(1 1)" id="Oval-Difference" fill="#40B6E0" fill-opacity="0.6" fill-rule="evenodd" stroke="none" />
    <path d="M6.012 4.35L6.012 3.66L4.206 3.66L5.172 2.748Q5.586 2.364 5.73 2.064Q5.874 1.764 5.874 1.422Q5.874 1.044 5.679 0.765001Q5.484 0.486001 5.133 0.333002Q4.782 0.180001 4.314 0.180001Q3.756 0.180001 3.324 0.387002Q2.892 0.594002 2.646 0.960001L3.354 1.416Q3.504 1.206 3.726 1.101Q3.948 0.996001 4.224 0.996001Q4.554 0.996001 4.725 1.131Q4.896 1.266 4.896 1.518Q4.896 1.692 4.806 1.869Q4.716 2.046 4.458 2.292L2.838 3.822L2.838 4.452L5.91 4.452L6.012 4.35ZM9.324 0.351998L9.324 0.252001L6.384 0.252001L6.384 1.032L7.33 1.032L8.01 0.351997L9.324 0.351998ZM6.85211 3.50989L6.24163 4.12037Q6.20704 4.09778 6.174 4.074L6.552 3.33Q6.68971 3.43328 6.85211 3.50989ZM2.142 4.452L2.142 0.252001L0.330002 0.252001L0.330002 1.032L1.17 1.032L1.17 4.452L2.142 4.452Z" transform="translate(2.989998 6.648003)" id="Text-Difference" fill="#000000" fill-opacity="0.8980392" fill-rule="evenodd" stroke="none" />
    <g id="Settings" transform="translate(7 7)">
      <path d="M3.33619 3.01543C3.03169 2.17367 3.25513 1.23148 3.90518 0.616095C4.55523 0.000705823 5.50824 -0.170817 6.33206 0.179302L4.69688 1.81393L5.88994 3.00699L7.52456 1.37236C7.87429 2.1961 7.70274 3.14878 7.08764 3.79878C6.47253 4.44878 5.53077 4.67258 4.689 4.3688L1.35225 7.70443L0 6.35274L3.33619 3.01599L3.33619 3.01543Z" transform="translate(0.6975031 0.86175)" id="Shape" fill="#6E6E6E" stroke="none" />
    </g>
  </g>
</svg>