<?xml version="1.0" encoding="utf-8"?>
<svg width="16px" height="16px" viewBox="0 0 16 16" version="1.1" xmlns:xlink="http://www.w3.org/1999/xlink" xmlns="http://www.w3.org/2000/svg">
  <desc>Created with Lunacy</desc>
  <defs>
    <path d="M0 8.49996L7.5 8.49996L7.5 15.9999L10 16L9 15L8.5 13.5L8.5 9.5L9 8.5L9.5 8.5L10 9L12.5 8.5L15 9L16 10L16 0L0 0L0 8.49996Z" id="path_1" />
    <clipPath id="mask_1">
      <use xlink:href="#path_1" />
    </clipPath>
  </defs>
  <g id="integer-repeat-array">
    <g id="Mask-group">
      <path d="M0 8.49996L7.5 8.49996L7.5 15.9999L10 16L9 15L8.5 13.5L8.5 9.5L9 8.5L9.5 8.5L10 9L12.5 8.5L15 9L16 10L16 0L0 0L0 8.49996Z" id="Action-mask" fill="none" stroke="none" />
      <g clip-path="url(#mask_1)">
        <g id="Action-instance">
          <g id="Action-instance">
            <path d="M0 7C0 3.13401 3.13401 0 7 0C10.866 0 14 3.13401 14 7C14 10.866 10.866 14 7 14C3.13401 14 0 10.866 0 7Z" transform="translate(1 1)" id="Oval" fill="#40B6E0" fill-opacity="0.6" stroke="none" />
            <g id="123" fill="#000000" fill-opacity="0.8980392">
              <path d="M9.002 9.308L9.002 10.1L5.828 10.1L5.828 9.47L7.448 7.94Q7.706 7.694 7.796 7.517Q7.886 7.34 7.886 7.166Q7.886 6.914 7.715 6.779Q7.544 6.644 7.214 6.644Q6.938 6.644 6.716 6.749Q6.494 6.854 6.344 7.064L5.636 6.608Q5.882 6.242 6.314 6.035Q6.746 5.828 7.304 5.828Q7.772 5.828 8.123 5.981Q8.474 6.134 8.669 6.413Q8.864 6.692 8.864 7.07Q8.864 7.412 8.72 7.712Q8.576 8.012 8.162 8.396L7.196 9.308L9.002 9.308ZM5.132 5.9L5.132 10.1L4.16 10.1L4.16 6.68L3.32 6.68L3.32 5.9L5.132 5.9ZM12.212 8.021Q11.918 7.7 11.366 7.61L12.314 6.53L12.314 5.9L9.374 5.9L9.374 6.68L11.162 6.68L10.298 7.658L10.298 8.3L10.742 8.3Q11.528 8.3 11.528 8.816Q11.528 9.074 11.318 9.215Q11.108 9.356 10.742 9.356Q10.412 9.356 10.097 9.257Q9.782 9.158 9.542 8.978L9.164 9.722Q9.464 9.938 9.893 10.055Q10.322 10.172 10.766 10.172Q11.336 10.172 11.729 9.986Q12.122 9.8 12.314 9.491Q12.506 9.182 12.506 8.816Q12.506 8.342 12.212 8.021Z" />
            </g>
          </g>
        </g>
      </g>
    </g>
    <g id="Array-instance" transform="translate(0 9.500004)">
      <g id="Group">
        <path d="M0 6.5L0 5.525L1.625 5.525L1.625 0.975L0 0.975L0 0L2.6 0L2.6 6.5L0 6.5L0 6.5Z" transform="translate(3.899999 0)" id="Right" fill="#6E6E6E" stroke="none" />
        <path d="M0 6.5L0 0L2.6 0L2.6 0.975L0.975 0.975L0.975 5.525L2.6 5.525L2.6 6.5L0 6.5L0 6.5Z" id="Left" fill="#6E6E6E" stroke="none" />
      </g>
    </g>
    <g id="Settings-instance" transform="translate(9.000008 9)">
      <g id="Shape" transform="translate(-0.007536888 0.1610396)">
        <path d="M3.33628 0C2.36649 0 1.49815 0.454063 0.915213 1.1699L0 0.308531L0.138604 3.07306L2.78338 2.92817L1.62351 1.83653C2.03157 1.32196 2.6477 0.994202 3.33707 0.994202C4.34253 0.994202 5.19219 1.69143 5.46771 2.64859L6.45591 2.68466C6.17152 1.15487 4.88292 0 3.33628 0ZM3.33628 6.64411C4.30762 6.64411 5.17718 6.1886 5.76013 5.47078L6.67653 6.33328L6.53793 3.56875L3.89315 3.71364L5.0505 4.8029C4.64244 5.31738 4.02636 5.64506 3.33707 5.64506C2.31149 5.64506 1.448 4.91964 1.19058 3.9329L0.205622 3.89694C0.466101 5.45767 1.76864 6.64411 3.33628 6.64411Z" transform="matrix(0.9986295 0.05233596 -0.05233596 0.9986295 0.347725 1.825392E-07)" id="Shape" fill="#6E6E6E" fill-rule="evenodd" stroke="none" />
      </g>
    </g>
  </g>
</svg>