<?xml version="1.0" encoding="utf-8"?>
<svg width="16px" height="16px" viewBox="0 0 16 16" version="1.1" xmlns:xlink="http://www.w3.org/1999/xlink" xmlns="http://www.w3.org/2000/svg">
  <desc>Created with Lunacy</desc>
  <defs>
    <path d="M0 0L16 0L16 9.5L15 9.5L15 8L14 8L11 11L10 11L10 12.5L8 12.5L8 15.5L10 15.5L10 16L0 16L0 0Z" id="path_1" />
    <clipPath id="mask_1">
      <use xlink:href="#path_1" />
    </clipPath>
  </defs>
  <g id="integer-quick-switch-scheme">
    <g id="Mask-group" transform="translate(1.525879E-05 0)">
      <path d="M0 0L16 0L16 9.5L15 9.5L15 8L14 8L11 11L10 11L10 12.5L8 12.5L8 15.5L10 15.5L10 16L0 16L0 0Z" id="Action-mask" fill="none" stroke="none" />
      <g clip-path="url(#mask_1)">
        <g id="Action-instance" transform="translate(-1.525879E-05 0)">
          <g id="Action-instance">
            <path d="M0 7C0 3.13401 3.13401 0 7 0C10.866 0 14 3.13401 14 7C14 10.866 10.866 14 7 14C3.13401 14 0 10.866 0 7Z" transform="translate(1 1)" id="Oval" fill="#40B6E0" fill-opacity="0.6" stroke="none" />
            <g id="123" fill="#000000" fill-opacity="0.8980392">
              <path d="M9.002 9.308L9.002 10.1L5.828 10.1L5.828 9.47L7.448 7.94Q7.706 7.694 7.796 7.517Q7.886 7.34 7.886 7.166Q7.886 6.914 7.715 6.779Q7.544 6.644 7.214 6.644Q6.938 6.644 6.716 6.749Q6.494 6.854 6.344 7.064L5.636 6.608Q5.882 6.242 6.314 6.035Q6.746 5.828 7.304 5.828Q7.772 5.828 8.123 5.981Q8.474 6.134 8.669 6.413Q8.864 6.692 8.864 7.07Q8.864 7.412 8.72 7.712Q8.576 8.012 8.162 8.396L7.196 9.308L9.002 9.308ZM5.132 5.9L5.132 10.1L4.16 10.1L4.16 6.68L3.32 6.68L3.32 5.9L5.132 5.9ZM12.212 8.021Q11.918 7.7 11.366 7.61L12.314 6.53L12.314 5.9L9.374 5.9L9.374 6.68L11.162 6.68L10.298 7.658L10.298 8.3L10.742 8.3Q11.528 8.3 11.528 8.816Q11.528 9.074 11.318 9.215Q11.108 9.356 10.742 9.356Q10.412 9.356 10.097 9.257Q9.782 9.158 9.542 8.978L9.164 9.722Q9.464 9.938 9.893 10.055Q10.322 10.172 10.766 10.172Q11.336 10.172 11.729 9.986Q12.122 9.8 12.314 9.491Q12.506 9.182 12.506 8.816Q12.506 8.342 12.212 8.021Z" />
            </g>
          </g>
        </g>
      </g>
    </g>
    <g id="QuickSwitchScheme-instance" transform="translate(9 9)">
      <g id="Group">
        <path d="M2.1 2.52778L2.1 4.08333L0 2.04167L2.1 0L2.1 1.55556L4.1 1.55556L4.1 2.52778L2.1 2.52778L2.1 2.52778Z" transform="translate(2.9 0)" id="Shape" fill="#6E6E6E" stroke="none" />
        <path d="M2 2.52778L2 4.08333L4.1 2.04167L2 0L2 1.55556L0 1.55556L0 2.52778L2 2.52778L2 2.52778Z" transform="translate(0 2.916667)" id="Shape" fill="#6E6E6E" stroke="none" />
      </g>
    </g>
  </g>
</svg>