<?xml version="1.0" encoding="utf-8"?>
<svg width="16px" height="16px" viewBox="0 0 16 16" version="1.1" xmlns:xlink="http://www.w3.org/1999/xlink" xmlns="http://www.w3.org/2000/svg">
  <g id="literal-scheme">
    <path d="M0 7C0 3.13401 3.13401 0 7 0C10.866 0 14 3.13401 14 7C14 10.866 10.866 14 7 14C3.13401 14 0 10.866 0 7Z" transform="translate(1 1)" id="Oval" fill="#F81313" fill-opacity="0.6" fill-rule="evenodd" stroke="none" />
    <g id="0x" fill="#000000" fill-opacity="0.8980392">
      <path d="M5.282 9.914Q5.69 10.172 6.212 10.172Q6.734 10.172 7.142 9.914Q7.55 9.656 7.781 9.167Q8.012 8.678 8.012 8Q8.012 7.322 7.781 6.833Q7.55 6.344 7.142 6.086Q6.734 5.828 6.212 5.828Q5.69 5.828 5.282 6.086Q4.874 6.344 4.643 6.833Q4.412 7.322 4.412 8Q4.412 8.678 4.643 9.167Q4.874 9.656 5.282 9.914ZM6.815 9.02Q6.596 9.35 6.212 9.35Q5.834 9.35 5.615 9.02Q5.396 8.69 5.396 8Q5.396 7.31 5.615 6.98Q5.834 6.65 6.212 6.65Q6.596 6.65 6.815 6.98Q7.034 7.31 7.034 8Q7.034 8.69 6.815 9.02ZM10.028 9.11L10.736 10.1L11.798 10.1L10.55 8.45L11.75 6.872L10.754 6.872L10.052 7.814L9.368 6.872L8.318 6.872L9.518 8.474L8.276 10.1L9.296 10.1L10.028 9.11Z" />
    </g>
  </g>
</svg>