<?xml version="1.0" encoding="utf-8"?>
<svg width="14px" height="14px" viewBox="0 0 14 14" version="1.1" xmlns:xlink="http://www.w3.org/1999/xlink" xmlns="http://www.w3.org/2000/svg">
  <g id="mixed-template">
    <path d="M7 7L0 7L0 0L5.001 0Q5.09921 0 5.19694 0.00962573Q5.29467 0.0192515 5.39099 0.0384102Q5.4873 0.057569 5.58128 0.0860763Q5.67526 0.114584 5.76599 0.152165Q5.85671 0.189746 5.94332 0.236039Q6.02993 0.282333 6.11159 0.336892Q6.19324 0.391452 6.26915 0.453752Q6.34507 0.516052 6.41451 0.585494Q6.48395 0.654935 6.54625 0.730848Q6.60855 0.806761 6.66311 0.888415Q6.71767 0.970069 6.76396 1.05668Q6.81025 1.14329 6.84784 1.23402Q6.88542 1.32474 6.91392 1.41872Q6.94243 1.5127 6.96159 1.60901Q6.98075 1.70533 6.99038 1.80306Q7 1.9008 7 1.999L7 7Z" transform="translate(7.000002 0)" id="top-right" fill="#F81313" fill-opacity="0.6" fill-rule="evenodd" stroke="none" />
    <path d="M7 4.44089e-16L7 5.001Q7 5.0992 6.99038 5.19694Q6.98075 5.29467 6.96159 5.39099Q6.94243 5.4873 6.91392 5.58128Q6.88542 5.67525 6.84784 5.76598Q6.81025 5.85671 6.76396 5.94332Q6.71767 6.02993 6.66311 6.11159Q6.60855 6.19324 6.54625 6.26915Q6.48395 6.34507 6.41451 6.41451Q6.34507 6.48395 6.26915 6.54625Q6.19324 6.60855 6.11159 6.66311Q6.02993 6.71767 5.94332 6.76396Q5.85671 6.81025 5.76599 6.84783Q5.67526 6.88542 5.58128 6.91392Q5.4873 6.94243 5.39099 6.96159Q5.29467 6.98075 5.19694 6.99037Q5.09921 7 5.001 7L0 7L0 0L7 0L7 4.44089e-16Z" transform="translate(7.000002 7)" id="bottom-right" fill="#F4AF3D" fill-opacity="0.6" fill-rule="evenodd" stroke="none" />
    <path d="M7 7L1.999 7Q1.9008 7 1.80306 6.99037Q1.70533 6.98075 1.60901 6.96159Q1.5127 6.94243 1.41872 6.91392Q1.32474 6.88542 1.23402 6.84783Q1.14329 6.81025 1.05668 6.76396Q0.970069 6.71767 0.888415 6.66311Q0.806761 6.60855 0.730848 6.54625Q0.654935 6.48395 0.585493 6.41451Q0.516052 6.34507 0.453752 6.26915Q0.391452 6.19324 0.336892 6.11158Q0.282333 6.02993 0.236039 5.94332Q0.189746 5.85671 0.152165 5.76598Q0.114584 5.67525 0.0860763 5.58128Q0.057569 5.4873 0.0384102 5.39099Q0.0192515 5.29467 0.00962573 5.19694Q0 5.0992 0 5.001L0 0L7 0L7 7Z" transform="translate(0 7)" id="bottom-left" fill="#40B6E0" fill-opacity="0.6" fill-rule="evenodd" stroke="none" />
    <path d="M7 0L7 7L0 7L0 1.999Q0 1.9008 0.00962573 1.80306Q0.0192515 1.70533 0.0384102 1.60901Q0.057569 1.5127 0.0860762 1.41872Q0.114584 1.32474 0.152165 1.23402Q0.189746 1.14329 0.236039 1.05668Q0.282333 0.970069 0.336892 0.888415Q0.391452 0.806761 0.453752 0.730848Q0.516052 0.654935 0.585493 0.585494Q0.654935 0.516052 0.730848 0.453752Q0.806761 0.391452 0.888415 0.336892Q0.970069 0.282333 1.05668 0.236039Q1.14329 0.189746 1.23402 0.152165Q1.32474 0.114584 1.41872 0.0860763Q1.5127 0.057569 1.60901 0.0384102Q1.70533 0.0192515 1.80306 0.00962573Q1.9008 0 1.999 0L7 0Z" id="top-left" fill="#62B543" fill-opacity="0.6" fill-rule="evenodd" stroke="none" />
  </g>
</svg>