<?xml version="1.0" encoding="utf-8"?>
<svg width="40px" height="40px" viewBox="0 0 40 40" version="1.1" xmlns:xlink="http://www.w3.org/1999/xlink" xmlns="http://www.w3.org/2000/svg">
  <g id="randomness">
    <g id="pluginIcon">
      <path d="M0 0L0 14C2.20914 14 4 15.7909 4 18L18 18L18 4.999Q18 4.87628 17.994 4.75371Q17.988 4.63114 17.9759 4.50901Q17.9639 4.38688 17.9459 4.26549Q17.9279 4.1441 17.9039 4.02374Q17.88 3.90338 17.8502 3.78434Q17.8204 3.6653 17.7847 3.54787Q17.7491 3.43043 17.7078 3.31489Q17.6664 3.19934 17.6195 3.08597Q17.5725 2.97259 17.52 2.86165Q17.4676 2.75072 17.4097 2.64249Q17.3519 2.53426 17.2888 2.429Q17.2257 2.32374 17.1575 2.2217Q17.0893 2.11967 17.0162 2.0211Q16.9431 1.92253 16.8653 1.82767Q16.7874 1.73281 16.705 1.64188Q16.6226 1.55095 16.5358 1.46417Q16.4491 1.3774 16.3581 1.29499Q16.2672 1.21257 16.1723 1.13472Q16.0775 1.05687 15.9789 0.983765Q15.8803 0.910662 15.7783 0.842483Q15.6763 0.774305 15.571 0.711215Q15.4657 0.648125 15.3575 0.590276Q15.2493 0.532426 15.1383 0.479957Q15.0274 0.427489 14.914 0.380526Q14.8007 0.333564 14.6851 0.292221Q14.5696 0.250879 14.4521 0.215255Q14.3347 0.179632 14.2157 0.149814Q14.0966 0.119996 13.9763 0.0960544Q13.8559 0.0721132 13.7345 0.0541066Q13.6131 0.0361001 13.491 0.0240715Q13.3689 0.012043 13.2463 0.00602151Q13.1237 0 13.001 0L0 0ZM9.5 4.5C7.29086 4.5 5.5 6.29086 5.5 8.5C5.5 10.7091 7.29086 12.5 9.5 12.5C11.7091 12.5 13.5 10.7091 13.5 8.5C13.5 6.29086 11.7091 4.5 9.5 4.5Z" transform="translate(20 2)" id="Top-die-Intersect" fill="#DB5860" fill-rule="evenodd" stroke="none" />
      <path d="M18 0L4 0C4 2.20914 2.20914 4 0 4L0 18L13.001 18Q13.1237 18 13.2463 17.994Q13.3689 17.988 13.491 17.9759Q13.6131 17.9639 13.7345 17.9459Q13.8559 17.9279 13.9763 17.9039Q14.0966 17.88 14.2157 17.8502Q14.3347 17.8204 14.4521 17.7847Q14.5696 17.7491 14.6851 17.7078Q14.8007 17.6664 14.914 17.6195Q15.0274 17.5725 15.1383 17.52Q15.2493 17.4676 15.3575 17.4097Q15.4657 17.3519 15.571 17.2888Q15.6763 17.2257 15.7783 17.1575Q15.8803 17.0893 15.9789 17.0162Q16.0775 16.9431 16.1723 16.8653Q16.2672 16.7874 16.3581 16.705Q16.4491 16.6226 16.5358 16.5358Q16.6226 16.4491 16.705 16.3581Q16.7874 16.2672 16.8653 16.1723Q16.9431 16.0775 17.0162 15.9789Q17.0893 15.8803 17.1575 15.7783Q17.2257 15.6763 17.2888 15.571Q17.3519 15.4657 17.4097 15.3575Q17.4676 15.2493 17.52 15.1383Q17.5725 15.0274 17.6195 14.914Q17.6664 14.8007 17.7078 14.6851Q17.7491 14.5696 17.7847 14.4521Q17.8204 14.3347 17.8502 14.2157Q17.88 14.0966 17.9039 13.9763Q17.9279 13.8559 17.9459 13.7345Q17.9639 13.6131 17.9759 13.491Q17.988 13.3689 17.994 13.2463Q18 13.1237 18 13.001L18 0ZM5.5 9.5C5.5 7.29086 7.29086 5.5 9.5 5.5C11.7091 5.5 13.5 7.29086 13.5 9.5C13.5 11.7091 11.7091 13.5 9.5 13.5C7.29086 13.5 5.5 11.7091 5.5 9.5Z" transform="translate(20 20)" id="Right-die-Intersect" fill="#EDA200" fill-rule="evenodd" stroke="none" />
      <path d="M18 18L18 4C15.7909 4 14 2.20914 14 0L0 0L0 13.001Q0 13.1237 0.00602151 13.2463Q0.012043 13.3689 0.0240715 13.491Q0.0361001 13.6131 0.0541066 13.7345Q0.0721132 13.8559 0.0960544 13.9763Q0.119996 14.0966 0.149814 14.2157Q0.179632 14.3347 0.215255 14.4521Q0.250879 14.5696 0.292221 14.6851Q0.333564 14.8007 0.380526 14.914Q0.427489 15.0274 0.479957 15.1383Q0.532426 15.2493 0.590276 15.3575Q0.648125 15.4657 0.711215 15.571Q0.774305 15.6763 0.842483 15.7783Q0.910662 15.8803 0.983765 15.9789Q1.05687 16.0775 1.13472 16.1723Q1.21257 16.2672 1.29499 16.3581Q1.3774 16.4491 1.46417 16.5358Q1.55095 16.6226 1.64188 16.705Q1.73281 16.7874 1.82767 16.8653Q1.92253 16.9431 2.0211 17.0162Q2.11967 17.0893 2.2217 17.1575Q2.32374 17.2257 2.429 17.2888Q2.53426 17.3519 2.64249 17.4097Q2.75072 17.4676 2.86165 17.52Q2.97259 17.5725 3.08597 17.6195Q3.19934 17.6664 3.31489 17.7078Q3.43043 17.7491 3.54787 17.7847Q3.6653 17.8204 3.78434 17.8502Q3.90338 17.88 4.02374 17.9039Q4.1441 17.9279 4.26549 17.9459Q4.38688 17.9639 4.50901 17.9759Q4.63114 17.988 4.75371 17.994Q4.87628 18 4.999 18L18 18ZM8.5 5.5C6.29086 5.5 4.5 7.29086 4.5 9.5C4.5 11.7091 6.29086 13.5 8.5 13.5C10.7091 13.5 12.5 11.7091 12.5 9.5C12.5 7.29086 10.7091 5.5 8.5 5.5Z" transform="translate(2.0000076 20)" id="Bottom-die-Intersect" fill="#389FD6" fill-rule="evenodd" stroke="none" />
      <path d="M0 18L14 18C14 15.7909 15.7909 14 18 14L18 0L4.999 0Q4.87628 0 4.75371 0.00602151Q4.63114 0.012043 4.50901 0.0240715Q4.38689 0.0361001 4.26549 0.0541066Q4.1441 0.0721132 4.02374 0.0960544Q3.90338 0.119996 3.78434 0.149814Q3.6653 0.179632 3.54787 0.215255Q3.43043 0.250879 3.31489 0.292221Q3.19934 0.333564 3.08597 0.380526Q2.97259 0.427489 2.86165 0.479957Q2.75072 0.532426 2.64249 0.590276Q2.53426 0.648125 2.429 0.711215Q2.32374 0.774305 2.2217 0.842483Q2.11967 0.910662 2.0211 0.983765Q1.92253 1.05687 1.82767 1.13472Q1.73281 1.21257 1.64188 1.29499Q1.55095 1.3774 1.46417 1.46417Q1.3774 1.55095 1.29499 1.64188Q1.21257 1.73281 1.13472 1.82767Q1.05687 1.92253 0.983766 2.0211Q0.910662 2.11967 0.842483 2.2217Q0.774305 2.32374 0.711215 2.429Q0.648125 2.53426 0.590276 2.64249Q0.532426 2.75072 0.479958 2.86165Q0.427489 2.97259 0.380526 3.08597Q0.333564 3.19934 0.292221 3.31489Q0.250879 3.43043 0.215255 3.54787Q0.179632 3.6653 0.149814 3.78434Q0.119996 3.90338 0.0960544 4.02374Q0.0721132 4.1441 0.0541066 4.26549Q0.0361001 4.38688 0.0240716 4.50901Q0.012043 4.63114 0.00602151 4.75371Q0 4.87628 0 4.999L0 18ZM4.5 8.5C4.5 6.29086 6.29086 4.5 8.5 4.5C10.7091 4.5 12.5 6.29086 12.5 8.5C12.5 10.7091 10.7091 12.5 8.5 12.5C6.29086 12.5 4.5 10.7091 4.5 8.5Z" transform="translate(2 2)" id="Left-die-Intersect" fill="#59A869" fill-rule="evenodd" stroke="none" />
    </g>
  </g>
</svg>