<?xml version="1.0" encoding="utf-8"?>
<svg width="16px" height="16px" viewBox="0 0 16 16" version="1.1" xmlns:xlink="http://www.w3.org/1999/xlink" xmlns="http://www.w3.org/2000/svg">
  <g id="reference_dark">
    <path d="M3.37938 5.22763L4.67316 6.5214L2.82491 8.36965C1.49792 9.69663 1.49792 11.8481 2.82491 13.1751C4.1519 14.5021 6.30336 14.5021 7.63035 13.1751L9.4786 11.3268L10.7724 12.6206L8.92412 14.4689C6.88261 16.5104 3.57265 16.5104 1.53114 14.4689C-0.510379 12.4273 -0.510379 9.11739 1.53114 7.07588L3.37938 5.22763L3.37938 5.22763ZM5.22762 3.37938L7.07586 1.53114C9.11738 -0.510379 12.4273 -0.510379 14.4688 1.53114C16.5104 3.57265 16.5104 6.88261 14.4688 8.92412L12.6206 10.7724L11.3268 9.4786L13.1751 7.63035C14.5021 6.30336 14.5021 4.1519 13.1751 2.82491C11.8481 1.49792 9.69662 1.49792 8.36963 2.82491L6.52139 4.67316L5.22762 3.37938L5.22762 3.37938ZM4.63057 9.93634L9.80566 4.76125L11.3767 6.33226L6.20158 11.5074L4.63057 9.93634L4.63057 9.93634Z" id="Shape" fill="#AFB1B3" fill-rule="evenodd" stroke="none" />
  </g>
</svg>