<?xml version="1.0" encoding="utf-8"?>
<svg width="16px" height="16px" viewBox="0 0 16 16" version="1.1" xmlns:xlink="http://www.w3.org/1999/xlink" xmlns="http://www.w3.org/2000/svg">
  <g id="reference-overlay">
    <g id="Settings-instance" transform="translate(9 0)">
      <path d="M1.47848 2.28709L2.04451 2.85311L1.2359 3.66172C0.655342 4.24228 0.655342 5.18355 1.2359 5.7641C1.81645 6.34466 2.75772 6.34466 3.33828 5.7641L4.14689 4.95549L4.71291 5.52152L3.9043 6.33013C3.01114 7.22329 1.56304 7.22329 0.669872 6.33013C-0.223291 5.43696 -0.223291 3.98886 0.669872 3.0957L1.47848 2.28709L1.47848 2.28709ZM2.28708 1.47848L3.09569 0.669873C3.98885 -0.223291 5.43696 -0.223291 6.33012 0.669873C7.22328 1.56304 7.22328 3.01114 6.33012 3.9043L5.52151 4.71291L4.95549 4.14689L5.76409 3.33828C6.34465 2.75772 6.34465 1.81645 5.76409 1.2359C5.18354 0.655342 4.24227 0.655342 3.66171 1.2359L2.85311 2.04451L2.28708 1.47848L2.28708 1.47848ZM2.02587 4.34715L4.28998 2.08305L4.97729 2.77037L2.71319 5.03447L2.02587 4.34715L2.02587 4.34715Z" transform="translate(0 -3.259629E-09)" id="Shape" fill="#6E6E6E" fill-rule="evenodd" stroke="#AFB1B3" stroke-width="0.4" />
    </g>
  </g>
</svg>