<?xml version="1.0" encoding="utf-8"?>
<svg width="16px" height="16px" viewBox="0 0 16 16" version="1.1" xmlns:xlink="http://www.w3.org/1999/xlink" xmlns="http://www.w3.org/2000/svg">
  <g id="repeat_dark">
    <g id="Repeat-instance">
      <path d="M13.166 12.5046C11.8335 14.1454 9.84594 15.1865 7.62573 15.1865C4.04255 15.1865 1.06531 12.4747 0.469933 8.9073L2.72128 8.98948C3.30965 11.2449 5.28335 12.903 7.62754 12.903C9.20307 12.903 10.6112 12.154 11.544 10.9781L8.89859 8.48831L14.9438 8.15715L15.2606 14.4761L13.166 12.5046L13.166 12.5046ZM2.09192 2.67407C3.42434 1.03786 5.40912 0 7.6258 0C11.161 0 14.1064 2.63971 14.7564 6.13636L12.4976 6.05391C11.8679 3.86613 9.9258 2.27246 7.62761 2.27246C6.05191 2.27246 4.6436 3.02163 3.71089 4.19779L6.36202 6.69297L0.31681 7.02413L0 0.705214L2.09192 2.67407L2.09192 2.67407Z" transform="matrix(0.9986295 0.05233596 -0.05233596 0.9986295 0.77760386 0.36809206)" id="Shape" fill="#AFB1B3" fill-rule="evenodd" stroke="none" />
    </g>
  </g>
</svg>