<?xml version="1.0" encoding="utf-8"?>
<svg width="16px" height="16px" viewBox="0 0 16 16" version="1.1" xmlns:xlink="http://www.w3.org/1999/xlink" xmlns="http://www.w3.org/2000/svg">
  <g id="repeat-overlay">
    <g id="Settings-instance" transform="translate(9.000008 9)">
      <path d="M5.76011 5.47078C5.17716 6.1886 4.3076 6.64411 3.33626 6.64411C1.76862 6.64411 0.466075 5.45767 0.205596 3.89694L1.19056 3.9329C1.44797 4.91964 2.31147 5.64507 3.33705 5.64507C4.02635 5.64507 4.64242 5.31738 5.05048 4.8029L3.89313 3.71364L6.53792 3.56875L6.67652 6.33328L5.76011 5.47078L5.76011 5.47078ZM0.915215 1.1699C1.49815 0.454063 2.36649 0 3.33629 0C4.88293 0 6.17153 1.15487 6.45592 2.68466L5.46772 2.64859C5.1922 1.69143 4.34254 0.994202 3.33708 0.994202C2.64771 0.994202 2.03157 1.32196 1.62351 1.83653L2.78339 2.92817L0.138604 3.07306L0 0.308531L0.915215 1.1699L0.915215 1.1699Z" transform="matrix(0.9986295 0.05233596 -0.05233596 0.9986295 0.3402017 0.16104032)" id="Shape" fill="#6E6E6E" fill-rule="evenodd" stroke="#AFB1B3" stroke-width="0.4" />
    </g>
  </g>
</svg>