<?xml version="1.0" encoding="utf-8"?>
<svg width="16" height="16" viewBox="0 0 16 16" version="1.1" xmlns:xlink="http://www.w3.org/1999/xlink" xmlns="http://www.w3.org/2000/svg">
  <g id="repeat-filled">
    <path d="M1 8C1 4.13401 4.13401 1 8 1C11.866 1 15 4.13401 15 8C15 11.866 11.866 15 8 15C4.13401 15 1 11.866 1 8Z" id="Ellipse" fill="#D3D3D3" fill-rule="evenodd" stroke="none" />
    <g id="repeat">
      <path d="M13.2711 13.5447C11.8546 15.1134 9.81525 16.0491 7.59808 15.9329C4.01981 15.7454 1.18859 12.8814 0.780722 9.28778L3.02468 9.48767C3.49421 11.7708 5.37842 13.5299 7.7194 13.6526C9.29278 13.7351 10.7382 13.0608 11.7312 11.9353L9.21976 9.31049L15.274 9.29616L15.2597 15.623L13.2711 13.5447L13.2711 13.5447ZM2.72671 3.14798C4.14293 1.58375 6.17931 0.651185 8.39295 0.767197C11.9233 0.952214 14.7265 3.74246 15.1926 7.26834L12.9413 7.06779C12.4269 4.85005 10.5709 3.15692 8.27583 3.03664C6.70229 2.95417 5.2567 3.62861 4.26371 4.75434L6.78063 7.38485L0.726366 7.39918L0.740697 1.07234L2.72671 3.14798L2.72671 3.14798Z" id="Shape" fill="#6E6E6E" fill-rule="evenodd" stroke="none" />
    </g>
  </g>
</svg>
