<?xml version="1.0" encoding="utf-8"?>
<svg width="16px" height="16px" viewBox="0 0 16 16" version="1.1" xmlns:xlink="http://www.w3.org/1999/xlink" xmlns="http://www.w3.org/2000/svg">
  <desc>Created with Lunacy</desc>
  <defs>
    <rect width="16" height="16" id="artboard_1" />
    <clipPath id="clip_1">
      <use xlink:href="#artboard_1" clip-rule="evenodd" />
    </clipPath>
  </defs>
  <g id="string" clip-path="url(#clip_1)">
    <use xlink:href="#artboard_1" stroke="none" fill="#FFFFFF" fill-opacity="0" />
    <g id="string">
      <path d="M0 7C0 3.13401 3.13401 0 7 0C10.866 0 14 3.13401 14 7C14 10.866 10.866 14 7 14C3.13401 14 0 10.866 0 7Z" transform="translate(1 1)" id="Oval" fill="#F4AF3D" fill-opacity="0.6" stroke="none" />
      <g id="abc" fill="#000000" fill-opacity="0.8980392">
        <path d="M8.348 6.824Q8.798 6.824 9.167 7.031Q9.536 7.238 9.746 7.613Q9.956 7.988 9.956 8.486Q9.956 8.984 9.746 9.359Q9.536 9.734 9.167 9.941Q8.798 10.148 8.348 10.148Q7.682 10.148 7.334 9.728L7.334 10.1L6.44 10.1L6.44 5.648L7.376 5.648L7.376 7.214Q7.73 6.824 8.348 6.824ZM4.04 6.824Q4.79 6.824 5.192 7.181Q5.594 7.538 5.594 8.258L5.594 10.1L4.718 10.1L4.718 9.698Q4.454 10.148 3.734 10.148Q3.362 10.148 3.089 10.022Q2.816 9.896 2.672 9.674Q2.528 9.452 2.528 9.17Q2.528 8.72 2.867 8.462Q3.206 8.204 3.914 8.204L4.658 8.204Q4.658 7.898 4.472 7.733Q4.286 7.568 3.914 7.568Q3.656 7.568 3.407 7.649Q3.158 7.73 2.984 7.868L2.648 7.214Q2.912 7.028 3.281 6.926Q3.65 6.824 4.04 6.824ZM11.213 9.935Q11.624 10.148 12.14 10.148Q12.65 10.148 13.031 9.932Q13.412 9.716 13.586 9.332L12.86 8.936Q12.614 9.38 12.134 9.38Q11.768 9.38 11.528 9.14Q11.288 8.9 11.288 8.486Q11.288 8.072 11.528 7.832Q11.768 7.592 12.134 7.592Q12.608 7.592 12.86 8.036L13.586 7.646Q13.412 7.25 13.031 7.037Q12.65 6.824 12.14 6.824Q11.624 6.824 11.213 7.037Q10.802 7.25 10.571 7.628Q10.34 8.006 10.34 8.486Q10.34 8.966 10.571 9.344Q10.802 9.722 11.213 9.935ZM8.186 9.38Q8.546 9.38 8.777 9.137Q9.008 8.894 9.008 8.486Q9.008 8.078 8.777 7.835Q8.546 7.592 8.186 7.592Q7.826 7.592 7.595 7.835Q7.364 8.078 7.364 8.486Q7.364 8.894 7.595 9.137Q7.826 9.38 8.186 9.38ZM3.968 9.518Q4.208 9.518 4.394 9.407Q4.58 9.296 4.658 9.08L4.658 8.75L4.016 8.75Q3.44 8.75 3.44 9.128Q3.44 9.308 3.581 9.413Q3.722 9.518 3.968 9.518Z" />
      </g>
    </g>
  </g>
</svg>