<?xml version="1.0" encoding="utf-8"?>
<svg width="16px" height="16px" viewBox="0 0 16 16" version="1.1" xmlns:xlink="http://www.w3.org/1999/xlink" xmlns="http://www.w3.org/2000/svg">
  <desc>Created with Lunacy</desc>
  <g id="string-array">
    <path d="M7 0C3.13401 0 0 3.13401 0 7C0 10.5265 2.60771 13.4439 6 13.9291L6 7L14 7C14 3.13401 10.866 0 7 0Z" transform="translate(1 1)" id="Oval-Difference" fill="#F4AF3D" fill-opacity="0.6" fill-rule="evenodd" stroke="none" />
    <path d="M6.177 1.383Q5.808 1.176 5.358 1.176Q4.74 1.176 4.386 1.566L4.386 0L3.45 0L3.45 4.452L4.01 4.452L4.01 2.352L4.4848 2.352Q4.53398 2.2617 4.605 2.187Q4.836 1.944 5.196 1.944Q5.556 1.944 5.787 2.187Q5.85801 2.2617 5.9072 2.352L6.90888 2.352Q6.85647 2.14442 6.756 1.965Q6.546 1.59 6.177 1.383ZM8.41087 2.352L7.41658 2.352Q7.47402 2.15506 7.581 1.98Q7.812 1.602 8.223 1.389Q8.634 1.176 9.15 1.176Q9.66 1.176 10.041 1.389Q10.422 1.602 10.596 1.998L9.93701 2.352L9.84875 2.352Q9.59838 1.944 9.144 1.944Q8.778 1.944 8.538 2.184Q8.46259 2.25941 8.41087 2.352ZM2.202 1.533Q1.8 1.176 1.05 1.176Q0.659999 1.176 0.290998 1.278Q-0.0780015 1.38 -0.342001 1.566L-0.00600147 2.22Q0.167999 2.082 0.416999 2.001Q0.665998 1.92 0.923999 1.92Q1.296 1.92 1.482 2.085Q1.668 2.25 1.668 2.556L0.923999 2.556Q0.215999 2.556 -0.123002 2.814Q-0.462001 3.072 -0.462001 3.522Q-0.462001 3.804 -0.318002 4.026Q-0.174001 4.248 0.0989985 4.374Q0.371999 4.5 0.743999 4.5Q1.464 4.5 1.728 4.05L1.728 4.452L2.604 4.452L2.604 2.61Q2.604 1.89 2.202 1.533ZM1.404 3.759Q1.218 3.87 0.977999 3.87Q0.731998 3.87 0.590999 3.765Q0.449999 3.66 0.449999 3.48Q0.449999 3.102 1.026 3.102L1.668 3.102L1.668 3.432Q1.59 3.648 1.404 3.759Z" transform="translate(2.990002 5.647995)" id="Text-Difference" fill="#000000" fill-opacity="0.8980392" fill-rule="evenodd" stroke="none" />
    <g id="Array" transform="translate(7 7.000004)">
      <path d="M0 5.625L0 4.78125L1.40625 4.78125L1.40625 0.84375L0 0.84375L0 0L2.25 0L2.25 5.625L0 5.625L0 5.625Z" transform="translate(5.625 1.6875)" id="Right" fill="#6E6E6E" stroke="none" />
      <path d="M0 5.625L0 0L2.25 0L2.25 0.84375L0.84375 0.84375L0.84375 4.78125L2.25 4.78125L2.25 5.625L0 5.625L0 5.625Z" transform="translate(1.125 1.6875)" id="Left" fill="#6E6E6E" stroke="none" />
    </g>
  </g>
</svg>