<?xml version="1.0" encoding="utf-8"?>
<svg width="16px" height="16px" viewBox="0 0 16 16" version="1.1" xmlns:xlink="http://www.w3.org/1999/xlink" xmlns="http://www.w3.org/2000/svg">
  <desc>Created with Lunacy</desc>
  <g id="string-settings">
    <path d="M7 0C3.13401 0 0 3.13401 0 7C0 10.5265 2.60771 13.4439 6 13.9291L6 12L9 9L9 7L10 6L13.9291 6C13.4439 2.60771 10.5265 0 7 0Z" transform="translate(1 1)" id="Oval-Difference" fill="#F4AF3D" fill-opacity="0.6" fill-rule="evenodd" stroke="none" />
    <path d="M6.177 1.383Q5.808 1.176 5.358 1.176Q4.74 1.176 4.386 1.566L4.386 0L3.45 0L3.45 4.452L4.344 4.452L4.344 4.08Q4.692 4.5 5.358 4.5Q5.68694 4.5 5.97261 4.38939L6.84895 3.51305Q6.966 3.20981 6.966 2.838Q6.966 2.34 6.756 1.965Q6.546 1.59 6.177 1.383ZM2.202 1.533Q1.8 1.176 1.05 1.176Q0.660002 1.176 0.291002 1.278Q-0.0779977 1.38 -0.341998 1.566L-0.00599766 2.22Q0.168002 2.082 0.417002 2.001Q0.666002 1.92 0.924002 1.92Q1.296 1.92 1.482 2.085Q1.668 2.25 1.668 2.556L0.924002 2.556Q0.216002 2.556 -0.122998 2.814Q-0.461998 3.072 -0.461998 3.522Q-0.461998 3.804 -0.317998 4.026Q-0.173998 4.248 0.0990024 4.374Q0.372002 4.5 0.744002 4.5Q1.464 4.5 1.728 4.05L1.728 4.452L2.604 4.452L2.604 2.61Q2.604 1.89 2.202 1.533ZM5.787 3.489Q5.556 3.732 5.196 3.732Q4.836 3.732 4.605 3.489Q4.374 3.246 4.374 2.838Q4.374 2.43 4.605 2.187Q4.836 1.944 5.196 1.944Q5.556 1.944 5.787 2.187Q6.018 2.43 6.018 2.838Q6.018 3.246 5.787 3.489ZM1.404 3.759Q1.218 3.87 0.978003 3.87Q0.732002 3.87 0.591002 3.765Q0.450002 3.66 0.450002 3.48Q0.450002 3.102 1.026 3.102L1.668 3.102L1.668 3.432Q1.59 3.648 1.404 3.759Z" transform="translate(2.989998 6.648003)" id="Text-Difference" fill="#000000" fill-opacity="0.8980392" fill-rule="evenodd" stroke="none" />
    <g id="Settings" transform="translate(7 7)">
      <path d="M3.33619 3.01543C3.03169 2.17367 3.25513 1.23148 3.90518 0.616095C4.55523 0.000705823 5.50824 -0.170817 6.33206 0.179302L4.69688 1.81393L5.88994 3.00699L7.52456 1.37236C7.87429 2.1961 7.70274 3.14878 7.08764 3.79878C6.47253 4.44878 5.53077 4.67258 4.689 4.3688L1.35225 7.70443L0 6.35274L3.33619 3.01599L3.33619 3.01543Z" transform="translate(0.6975031 0.86175)" id="Shape" fill="#6E6E6E" stroke="none" />
    </g>
  </g>
</svg>