<?xml version="1.0" encoding="utf-8"?>
<svg width="16" height="16" viewBox="0 0 16 16" version="1.1" xmlns:xlink="http://www.w3.org/1999/xlink" xmlns="http://www.w3.org/2000/svg">
  <g id="template">
    <path d="M2.999 1L13.001 1Q13.0992 1 13.1969 1.00963Q13.2947 1.01925 13.391 1.03841Q13.4873 1.05757 13.5813 1.08608Q13.6753 1.11458 13.766 1.15216Q13.8567 1.18975 13.9433 1.23604Q14.0299 1.28233 14.1116 1.33689Q14.1932 1.39145 14.2692 1.45375Q14.3451 1.51605 14.4145 1.58549Q14.4839 1.65493 14.5462 1.73085Q14.6085 1.80676 14.6631 1.88842Q14.7177 1.97007 14.764 2.05668Q14.8103 2.14329 14.8478 2.23402Q14.8854 2.32474 14.9139 2.41872Q14.9424 2.5127 14.9616 2.60901Q14.9807 2.70533 14.9904 2.80306Q15 2.9008 15 2.999L15 13.001Q15 13.0992 14.9904 13.1969Q14.9807 13.2947 14.9616 13.391Q14.9424 13.4873 14.9139 13.5813Q14.8854 13.6753 14.8478 13.766Q14.8103 13.8567 14.764 13.9433Q14.7177 14.0299 14.6631 14.1116Q14.6085 14.1932 14.5462 14.2692Q14.4839 14.3451 14.4145 14.4145Q14.3451 14.4839 14.2692 14.5462Q14.1932 14.6085 14.1116 14.6631Q14.0299 14.7177 13.9433 14.764Q13.8567 14.8103 13.766 14.8478Q13.6753 14.8854 13.5813 14.9139Q13.4873 14.9424 13.391 14.9616Q13.2947 14.9807 13.1969 14.9904Q13.0992 15 13.001 15L2.999 15Q2.9008 15 2.80306 14.9904Q2.70533 14.9807 2.60901 14.9616Q2.5127 14.9424 2.41872 14.9139Q2.32474 14.8854 2.23402 14.8478Q2.14329 14.8103 2.05668 14.764Q1.97007 14.7177 1.88842 14.6631Q1.80676 14.6085 1.73085 14.5462Q1.65493 14.4839 1.58549 14.4145Q1.51605 14.3451 1.45375 14.2692Q1.39145 14.1932 1.33689 14.1116Q1.28233 14.0299 1.23604 13.9433Q1.18975 13.8567 1.15216 13.766Q1.11458 13.6753 1.08608 13.5813Q1.05757 13.4873 1.03841 13.391Q1.01925 13.2947 1.00963 13.1969Q1 13.0992 1 13.001L1 2.999Q1 2.9008 1.00963 2.80306Q1.01925 2.70533 1.03841 2.60901Q1.05757 2.5127 1.08608 2.41872Q1.11458 2.32474 1.15216 2.23402Q1.18975 2.14329 1.23604 2.05668Q1.28233 1.97007 1.33689 1.88842Q1.39145 1.80676 1.45375 1.73085Q1.51605 1.65493 1.58549 1.58549Q1.65493 1.51605 1.73085 1.45375Q1.80676 1.39145 1.88842 1.33689Q1.97007 1.28233 2.05668 1.23604Q2.14329 1.18975 2.23402 1.15216Q2.32474 1.11458 2.41872 1.08608Q2.5127 1.05757 2.60901 1.03841Q2.70533 1.01925 2.80306 1.00963Q2.9008 1 2.999 1L2.999 1Z" id="Rectangle" fill="#6E6E6E" fill-rule="evenodd" stroke="none" />
  </g>
</svg>
