<?xml version="1.0" encoding="utf-8"?>
<svg width="16px" height="16px" viewBox="0 0 16 16" version="1.1" xmlns:xlink="http://www.w3.org/1999/xlink" xmlns="http://www.w3.org/2000/svg">
  <desc>Created with Lunacy</desc>
  <g id="uuid-settings_dark">
    <path d="M7 0C3.13401 0 0 3.13401 0 7C0 10.5265 2.60771 13.4439 6 13.9291L6 12L9 9L9 7L10 6L13.9291 6C13.4439 2.60771 10.5265 0 7 0Z" transform="translate(1 1)" id="Oval-Difference" fill="#AFB1B3" fill-rule="evenodd" stroke="none" />
    <path d="M10.02 1.352L10.02 -2.38419e-06L9.084 -2.38419e-06L9.084 1.352L10.02 1.352ZM7.01 4.09295L7.01 2.352L8.01 1.352L8.82647 1.352Q8.53316 1.176 8.118 1.176Q7.662 1.176 7.293 1.38Q6.924 1.584 6.714 1.962Q6.504 2.34 6.504 2.838Q6.504 3.336 6.714 3.714Q6.83542 3.93256 7.01 4.09295ZM1.347 1.296Q1.062 1.416 0.894002 1.65L0.894002 1.224L2.38419e-06 1.224L2.38419e-06 4.452L0.936002 4.452L0.936002 2.928Q0.936002 2.478 1.164 2.253Q1.392 2.028 1.794 2.028Q1.848 2.028 2.004 2.04L2.004 1.176Q1.632 1.176 1.347 1.296ZM5.517 1.536Q5.148 1.176 4.548 1.176Q4.218 1.176 3.942 1.287Q3.666 1.398 3.48 1.602L3.48 1.224L2.586 1.224L2.586 4.452L3.522 4.452L3.522 2.856Q3.522 2.424 3.732 2.205Q3.942 1.986 4.296 1.986Q4.614 1.986 4.782 2.175Q4.95 2.364 4.95 2.748L4.95 4.452L5.886 4.452L5.886 2.604Q5.886 1.896 5.517 1.536Z" transform="translate(2.989998 5.648003)" id="Text-Difference" fill="#000000" fill-opacity="0.8980392" fill-rule="evenodd" stroke="none" />
    <g id="Settings-Dark" transform="translate(7 7)">
      <path d="M3.33619 3.01543C3.03169 2.17367 3.25513 1.23148 3.90518 0.616095C4.55523 0.000705823 5.50824 -0.170817 6.33206 0.179302L4.69688 1.81393L5.88994 3.00699L7.52456 1.37236C7.87429 2.1961 7.70274 3.14878 7.08764 3.79878C6.47253 4.44878 5.53077 4.67258 4.689 4.3688L1.35225 7.70443L0 6.35274L3.33619 3.01599L3.33619 3.01543Z" transform="translate(0.6974988 0.8617487)" id="Shape" fill="#AFB1B3" stroke="none" />
    </g>
  </g>
</svg>