<?xml version="1.0" encoding="utf-8"?>
<svg width="16px" height="16px" viewBox="0 0 16 16" version="1.1" xmlns:xlink="http://www.w3.org/1999/xlink" xmlns="http://www.w3.org/2000/svg">
  <desc>Created with Lunacy</desc>
  <defs>
    <path d="M9.5 8.5L17 8.5L17 0L0 0L0 16L9.5 16L9.5 8.5Z" id="path_1" />
    <clipPath id="mask_1">
      <use xlink:href="#path_1" />
    </clipPath>
  </defs>
  <g id="uuid-array_dark">
    <g id="ActionArray-instance">
      <g id="Mask-group" transform="translate(-1 0)">
        <path d="M9.5 8.5L17 8.5L17 0L0 0L0 16L9.5 16L9.5 8.5Z" id="Action-mask" fill="none" stroke="none" />
        <g clip-path="url(#mask_1)">
          <g id="Action-instance" transform="translate(1 0)">
            <g id="uuid">
              <path d="M0 7C0 3.13401 3.13401 0 7 0C10.866 0 14 3.13401 14 7C14 10.866 10.866 14 7 14C3.13401 14 0 10.866 0 7Z" transform="translate(1 1)" id="Oval" fill="#B99BF8" fill-opacity="0.6" stroke="none" />
              <g id="id" fill="#000000" fill-opacity="0.8980392">
                <path d="M5.501 6.272Q5.663 6.422 5.921 6.422Q6.179 6.422 6.341 6.269Q6.503 6.116 6.503 5.882Q6.503 5.666 6.341 5.522Q6.179 5.378 5.921 5.378Q5.663 5.378 5.501 5.528Q5.339 5.678 5.339 5.9Q5.339 6.122 5.501 6.272ZM10.547 10.1L10.547 5.648L9.611 5.648L9.611 7.214Q9.263 6.824 8.645 6.824Q8.189 6.824 7.82 7.028Q7.451 7.232 7.241 7.61Q7.031 7.988 7.031 8.486Q7.031 8.984 7.241 9.362Q7.451 9.74 7.82 9.944Q8.189 10.148 8.645 10.148Q9.305 10.148 9.653 9.728L9.653 10.1L10.547 10.1ZM6.389 6.872L5.453 6.872L5.453 10.1L6.389 10.1L6.389 6.872ZM9.395 9.137Q9.161 9.38 8.807 9.38Q8.447 9.38 8.213 9.137Q7.979 8.894 7.979 8.486Q7.979 8.078 8.213 7.835Q8.447 7.592 8.807 7.592Q9.161 7.592 9.395 7.835Q9.629 8.078 9.629 8.486Q9.629 8.894 9.395 9.137Z" />
              </g>
            </g>
          </g>
        </g>
      </g>
      <g id="Array-instance" transform="translate(9.500004 9.499996)">
        <g id="Array-instance">
          <g id="Group">
            <path d="M0 6.5L0 5.525L1.625 5.525L1.625 0.975L0 0.975L0 0L2.6 0L2.6 6.5L0 6.5L0 6.5Z" transform="translate(3.899999 0)" id="Right" fill="#AFB1B3" stroke="none" />
            <path d="M0 6.5L0 0L2.6 0L2.6 0.975L0.975 0.975L0.975 5.525L2.6 5.525L2.6 6.5L0 6.5L0 6.5Z" id="Left" fill="#AFB1B3" stroke="none" />
          </g>
        </g>
      </g>
    </g>
  </g>
</svg>