<?xml version="1.0" encoding="utf-8"?>
<svg width="16px" height="16px" viewBox="0 0 16 16" version="1.1" xmlns:xlink="http://www.w3.org/1999/xlink" xmlns="http://www.w3.org/2000/svg">
  <desc>Created with Lunacy</desc>
  <g id="uuid-settings">
    <path d="M7 0C3.13401 0 0 3.13401 0 7C0 10.5265 2.60771 13.4439 6 13.9291L6 12L9 9L9 7L10 6L13.9291 6C13.4439 2.60771 10.5265 0 7 0Z" transform="translate(1 1)" id="Oval-Difference" fill="#B99BF8" fill-opacity="0.6" fill-rule="evenodd" stroke="none" />
    <path d="M2.511 0.624002Q2.673 0.774001 2.931 0.774001Q3.189 0.774001 3.351 0.621001Q3.513 0.468002 3.513 0.234002Q3.513 0.0180016 3.351 -0.125998Q3.189 -0.269999 2.931 -0.269999Q2.673 -0.269999 2.511 -0.119998Q2.349 0.0300012 2.349 0.252001Q2.349 0.474002 2.511 0.624002ZM7.557 0.804997L7.557 0L6.621 0L6.621 1.566Q6.273 1.176 5.655 1.176Q5.199 1.176 4.83 1.38Q4.461 1.584 4.251 1.962Q4.041 2.34 4.041 2.838Q4.041 3.336 4.251 3.714Q4.461 4.092 4.83 4.296Q5.199 4.5 5.655 4.5Q5.76952 4.5 5.87464 4.48736L7.01 3.352L7.01 1.352L7.557 0.804997ZM3.399 4.452L3.399 1.224L2.463 1.224L2.463 4.452L3.399 4.452ZM6.405 3.489Q6.171 3.732 5.817 3.732Q5.457 3.732 5.223 3.489Q4.989 3.246 4.989 2.838Q4.989 2.43 5.223 2.187Q5.457 1.944 5.817 1.944Q6.171 1.944 6.405 2.187Q6.639 2.43 6.639 2.838Q6.639 3.246 6.405 3.489Z" transform="translate(2.989998 6.648003)" id="Text-Difference" fill="#000000" fill-opacity="0.8980392" fill-rule="evenodd" stroke="none" />
    <g id="Settings" transform="translate(7 7)">
      <path d="M3.33619 3.01543C3.03169 2.17367 3.25513 1.23148 3.90518 0.616095C4.55523 0.000705823 5.50824 -0.170817 6.33206 0.179302L4.69688 1.81393L5.88994 3.00699L7.52456 1.37236C7.87429 2.1961 7.70274 3.14878 7.08764 3.79878C6.47253 4.44878 5.53077 4.67258 4.689 4.3688L1.35225 7.70443L0 6.35274L3.33619 3.01599L3.33619 3.01543Z" transform="translate(0.6975031 0.86175)" id="Shape" fill="#6E6E6E" stroke="none" />
    </g>
  </g>
</svg>