<?xml version="1.0" encoding="utf-8"?>
<svg width="16px" height="16px" viewBox="0 0 16 16" version="1.1" xmlns:xlink="http://www.w3.org/1999/xlink" xmlns="http://www.w3.org/2000/svg">
  <desc>Created with Lunacy</desc>
  <defs>
    <path d="M13 8L16 8L16 0L0 0L0 16L8 16L8 14L11 11L11.5 9L13 8Z" id="path_1" />
    <clipPath id="mask_1">
      <use xlink:href="#path_1" />
    </clipPath>
  </defs>
  <g id="uuid-settings_dark">
    <g id="ActionSettings-instance">
      <g id="Mask-group">
        <path d="M13 8L16 8L16 0L0 0L0 16L8 16L8 14L11 11L11.5 9L13 8Z" id="Action-mask" fill="none" stroke="none" />
        <g clip-path="url(#mask_1)">
          <g id="Action-instance">
            <g id="uuid">
              <path d="M0 7C0 3.13401 3.13401 0 7 0C10.866 0 14 3.13401 14 7C14 10.866 10.866 14 7 14C3.13401 14 0 10.866 0 7Z" transform="translate(1 1)" id="Oval" fill="#B99BF8" fill-opacity="0.6" stroke="none" />
              <g id="id" fill="#000000" fill-opacity="0.8980392">
                <path d="M5.501 6.272Q5.663 6.422 5.921 6.422Q6.179 6.422 6.341 6.269Q6.503 6.116 6.503 5.882Q6.503 5.666 6.341 5.522Q6.179 5.378 5.921 5.378Q5.663 5.378 5.501 5.528Q5.339 5.678 5.339 5.9Q5.339 6.122 5.501 6.272ZM10.547 10.1L10.547 5.648L9.611 5.648L9.611 7.214Q9.263 6.824 8.645 6.824Q8.189 6.824 7.82 7.028Q7.451 7.232 7.241 7.61Q7.031 7.988 7.031 8.486Q7.031 8.984 7.241 9.362Q7.451 9.74 7.82 9.944Q8.189 10.148 8.645 10.148Q9.305 10.148 9.653 9.728L9.653 10.1L10.547 10.1ZM6.389 6.872L5.453 6.872L5.453 10.1L6.389 10.1L6.389 6.872ZM9.395 9.137Q9.161 9.38 8.807 9.38Q8.447 9.38 8.213 9.137Q7.979 8.894 7.979 8.486Q7.979 8.078 8.213 7.835Q8.447 7.592 8.807 7.592Q9.161 7.592 9.395 7.835Q9.629 8.078 9.629 8.486Q9.629 8.894 9.395 9.137Z" />
              </g>
            </g>
          </g>
        </g>
      </g>
      <g id="Settings-instance" transform="translate(9 9)">
        <g id="Settings-instance">
          <path d="M3.03149 2.73907C2.7548 1.97446 2.95783 1.11862 3.54851 0.559632C4.13919 0.000641137 5.00516 -0.155162 5.75374 0.16287L4.2679 1.64769L5.352 2.73141L6.83733 1.24659C7.15511 1.99484 6.99923 2.8602 6.4403 3.45063C5.88138 4.04106 5.02563 4.24436 4.26074 3.96842L1.22875 6.99834L0 5.77053L3.03149 2.73959L3.03149 2.73907Z" id="Shape" fill="#AFB1B3" stroke="none" />
        </g>
      </g>
    </g>
  </g>
</svg>