<?xml version="1.0" encoding="utf-8"?>
<svg width="16px" height="16px" viewBox="0 0 16 16" version="1.1" xmlns:xlink="http://www.w3.org/1999/xlink" xmlns="http://www.w3.org/2000/svg">
  <desc>Created with Lunacy</desc>
  <g id="word-settings">
    <path d="M7 0C3.13401 0 0 3.13401 0 7C0 10.5265 2.60771 13.4439 6 13.9291L6 12L9 9L9 7L10 6L13.9291 6C13.4439 2.60771 10.5265 0 7 0Z" transform="translate(1 1)" id="Oval-Difference" fill="#F26522" fill-opacity="0.6" fill-rule="evenodd" stroke="none" />
    <path d="M6.915 3.447L6.915 2.61Q6.915 1.89 6.513 1.533Q6.111 1.176 5.361 1.176Q4.971 1.176 4.602 1.278Q4.233 1.38 3.969 1.566L4.305 2.22Q4.479 2.082 4.728 2.001Q4.977 1.92 5.235 1.92Q5.607 1.92 5.793 2.085Q5.979 2.25 5.979 2.556L5.235 2.556Q4.527 2.556 4.188 2.814Q3.849 3.072 3.849 3.522Q3.849 3.804 3.993 4.026Q4.137 4.248 4.41 4.374Q4.683 4.5 5.055 4.5Q5.775 4.5 6.039 4.05L6.039 4.323L6.915 3.447ZM1.146 4.287Q1.557 4.5 2.073 4.5Q2.583 4.5 2.964 4.284Q3.345 4.068 3.519 3.684L2.793 3.288Q2.547 3.732 2.067 3.732Q1.701 3.732 1.461 3.492Q1.221 3.252 1.221 2.838Q1.221 2.424 1.461 2.184Q1.701 1.944 2.067 1.944Q2.541 1.944 2.793 2.388L3.519 1.998Q3.345 1.602 2.964 1.389Q2.583 1.176 2.073 1.176Q1.557 1.176 1.146 1.389Q0.735002 1.602 0.504002 1.98Q0.273002 2.358 0.273002 2.838Q0.273002 3.318 0.504002 3.696Q0.735002 4.074 1.146 4.287ZM5.715 3.759Q5.529 3.87 5.289 3.87Q5.043 3.87 4.902 3.765Q4.761 3.66 4.761 3.48Q4.761 3.102 5.337 3.102L5.979 3.102L5.979 3.432Q5.901 3.648 5.715 3.759Z" transform="translate(2.989998 6.648003)" id="Text-Difference" fill="#000000" fill-opacity="0.8980392" fill-rule="evenodd" stroke="none" />
    <g id="Settings" transform="translate(7 7)">
      <path d="M3.33619 3.01543C3.03169 2.17367 3.25513 1.23148 3.90518 0.616095C4.55523 0.000705823 5.50824 -0.170817 6.33206 0.179302L4.69688 1.81393L5.88994 3.00699L7.52456 1.37236C7.87429 2.1961 7.70274 3.14878 7.08764 3.79878C6.47253 4.44878 5.53077 4.67258 4.689 4.3688L1.35225 7.70443L0 6.35274L3.33619 3.01599L3.33619 3.01543Z" transform="translate(0.6975031 0.86175)" id="Shape" fill="#6E6E6E" stroke="none" />
    </g>
  </g>
</svg>