<?xml version="1.0" encoding="utf-8"?>
<svg width="16px" height="16px" viewBox="0 0 16 16" version="1.1" xmlns:xlink="http://www.w3.org/1999/xlink" xmlns="http://www.w3.org/2000/svg">
  <desc>Created with Lunacy</desc>
  <g id="word-array">
    <path d="M7 0C3.13401 0 0 3.13401 0 7C0 10.5265 2.60771 13.4439 6 13.9291L6 7L14 7C14 3.13401 10.866 0 7 0Z" transform="translate(1 1)" id="Oval-Difference" fill="#F26522" fill-opacity="0.6" fill-rule="evenodd" stroke="none" />
    <path d="M7.875 2.352L8.811 2.352L8.811 2.016L9.615 2.016L9.615 1.296L8.811 1.296L8.811 0.510002L7.875 0.510002L7.875 1.296L7.377 1.296L7.377 2.016L7.875 2.016L7.875 2.352ZM6.90078 2.352L5.95438 2.352Q5.91133 2.18997 5.793 2.085Q5.607 1.92 5.235 1.92Q4.977 1.92 4.728 2.001Q4.479 2.082 4.305 2.22L3.969 1.566Q4.233 1.38 4.602 1.278Q4.971 1.176 5.361 1.176Q6.111 1.176 6.513 1.533Q6.83939 1.82286 6.90078 2.352ZM4.01 2.99295L4.01 4.05123Q4.00128 4.03877 3.993 4.026Q3.849 3.804 3.849 3.522Q3.849 3.21188 4.01 2.99295ZM1.146 4.287Q1.557 4.5 2.073 4.5Q2.583 4.5 2.964 4.284Q3.345 4.068 3.519 3.684L2.793 3.288Q2.547 3.732 2.067 3.732Q1.701 3.732 1.461 3.492Q1.221 3.252 1.221 2.838Q1.221 2.424 1.461 2.184Q1.701 1.944 2.067 1.944Q2.541 1.944 2.793 2.388L3.519 1.998Q3.345 1.602 2.964 1.389Q2.583 1.176 2.073 1.176Q1.557 1.176 1.146 1.389Q0.734998 1.602 0.503999 1.98Q0.272998 2.358 0.272998 2.838Q0.272998 3.318 0.503999 3.696Q0.734998 4.074 1.146 4.287Z" transform="translate(2.990002 5.647995)" id="Text-Difference" fill="#000000" fill-opacity="0.8980392" fill-rule="evenodd" stroke="none" />
    <g id="Array" transform="translate(7 7.000004)">
      <path d="M0 5.625L0 4.78125L1.40625 4.78125L1.40625 0.84375L0 0.84375L0 0L2.25 0L2.25 5.625L0 5.625L0 5.625Z" transform="translate(5.625 1.6875)" id="Right" fill="#6E6E6E" stroke="none" />
      <path d="M0 5.625L0 0L2.25 0L2.25 0.84375L0.84375 0.84375L0.84375 4.78125L2.25 4.78125L2.25 5.625L0 5.625L0 5.625Z" transform="translate(1.125 1.6875)" id="Left" fill="#6E6E6E" stroke="none" />
    </g>
  </g>
</svg>