<?xml version="1.0" encoding="utf-8"?>
<svg width="16px" height="16px" viewBox="0 0 16 16" version="1.1" xmlns:xlink="http://www.w3.org/1999/xlink" xmlns="http://www.w3.org/2000/svg">
  <desc>Created with Lunacy</desc>
  <g id="word-array_dark">
    <path d="M7 0C3.13401 0 0 3.13401 0 7C0 10.5265 2.60771 13.4439 6 13.9291L6 7L14 7C14 3.13401 10.866 0 7 0Z" transform="translate(1 1)" id="Oval-Difference" fill="#AFB1B3" fill-rule="evenodd" stroke="none" />
    <path d="M10.02 2.35201L10.02 0L9.084 0L9.084 1.566Q8.736 1.176 8.118 1.176Q7.662 1.176 7.293 1.38Q6.924 1.584 6.714 1.962Q6.61332 2.14321 6.56091 2.35201L7.56424 2.35201Q7.61406 2.26171 7.686 2.187Q7.92 1.944 8.28 1.944Q8.634 1.944 8.868 2.187Q8.93994 2.26171 8.98976 2.35201L10.02 2.35201ZM4.88746 2.35201Q4.84749 2.24868 4.782 2.175Q4.614 1.986 4.296 1.986Q3.942 1.986 3.732 2.205Q3.522 2.424 3.522 2.856L3.522 4.452L2.586 4.452L2.586 1.224L3.48 1.224L3.48 1.602Q3.666 1.398 3.942 1.287Q4.218 1.176 4.548 1.176Q5.148 1.176 5.517 1.536Q5.81718 1.82886 5.87316 2.35201L4.88746 2.35201ZM1.347 1.296Q1.062 1.416 0.893999 1.65L0.893999 1.224L0 1.224L0 4.452L0.935998 4.452L0.935998 2.928Q0.935998 2.478 1.164 2.253Q1.392 2.028 1.794 2.028Q1.848 2.028 2.004 2.04L2.004 1.176Q1.632 1.176 1.347 1.296Z" transform="translate(2.990002 5.647995)" id="Text-Difference" fill="#000000" fill-opacity="0.8980392" fill-rule="evenodd" stroke="none" />
    <g id="Array-Dark" transform="translate(7 7.000008)">
      <path d="M0 5.625L0 4.78125L1.40625 4.78125L1.40625 0.84375L0 0.84375L0 0L2.25 0L2.25 5.625L0 5.625L0 5.625Z" transform="translate(5.625 1.6875)" id="Right" fill="#AFB1B3" stroke="none" />
      <path d="M0 5.625L0 0L2.25 0L2.25 0.84375L0.84375 0.84375L0.84375 4.78125L2.25 4.78125L2.25 5.625L0 5.625L0 5.625Z" transform="translate(1.125 1.6875)" id="Left" fill="#AFB1B3" stroke="none" />
    </g>
  </g>
</svg>