<?xml version="1.0" encoding="utf-8"?>
<svg width="16px" height="16px" viewBox="0 0 16 16" version="1.1" xmlns:xlink="http://www.w3.org/1999/xlink" xmlns="http://www.w3.org/2000/svg">
  <desc>Created with Lunacy</desc>
  <defs>
    <path d="M0 0L16 0L16 9.5L15 9.5L15 8L14 8L11 11L10 11L10 12.5L8 12.5L8 15.5L10 15.5L10 16L0 16L0 0Z" id="path_1" />
    <clipPath id="mask_1">
      <use xlink:href="#path_1" />
    </clipPath>
  </defs>
  <g id="word-quick-switch-scheme">
    <g id="Mask-group" transform="translate(1.525879E-05 0)">
      <path d="M0 0L16 0L16 9.5L15 9.5L15 8L14 8L11 11L10 11L10 12.5L8 12.5L8 15.5L10 15.5L10 16L0 16L0 0Z" id="Action-mask" fill="none" stroke="none" />
      <g clip-path="url(#mask_1)">
        <g id="Action-instance" transform="translate(-1.525879E-05 0)">
          <g id="word">
            <path d="M0 7C0 3.13401 3.13401 0 7 0C10.866 0 14 3.13401 14 7C14 10.866 10.866 14 7 14C3.13401 14 0 10.866 0 7Z" transform="translate(1 1)" id="Oval" fill="#F26522" fill-opacity="0.6" stroke="none" />
            <g id="cat" fill="#000000" fill-opacity="0.8980392">
              <path d="M12.494 10.097Q12.695 10.046 12.833 9.944L12.581 9.284Q12.425 9.404 12.203 9.404Q12.011 9.404 11.906 9.293Q11.801 9.182 11.801 8.978L11.801 7.664L12.605 7.664L12.605 6.944L11.801 6.944L11.801 6.158L10.865 6.158L10.865 6.944L10.367 6.944L10.367 7.664L10.865 7.664L10.865 8.99Q10.865 9.56 11.18 9.854Q11.495 10.148 12.071 10.148Q12.293 10.148 12.494 10.097ZM5.063 10.148Q4.547 10.148 4.136 9.935Q3.725 9.722 3.494 9.344Q3.263 8.966 3.263 8.486Q3.263 8.006 3.494 7.628Q3.725 7.25 4.136 7.037Q4.547 6.824 5.063 6.824Q5.573 6.824 5.954 7.037Q6.335 7.25 6.509 7.646L5.783 8.036Q5.531 7.592 5.057 7.592Q4.691 7.592 4.451 7.832Q4.211 8.072 4.211 8.486Q4.211 8.9 4.451 9.14Q4.691 9.38 5.057 9.38Q5.537 9.38 5.783 8.936L6.509 9.332Q6.335 9.716 5.954 9.932Q5.573 10.148 5.063 10.148ZM8.351 6.824Q9.101 6.824 9.503 7.181Q9.905 7.538 9.905 8.258L9.905 10.1L9.029 10.1L9.029 9.698Q8.765 10.148 8.045 10.148Q7.673 10.148 7.4 10.022Q7.127 9.896 6.983 9.674Q6.839 9.452 6.839 9.17Q6.839 8.72 7.178 8.462Q7.517 8.204 8.225 8.204L8.969 8.204Q8.969 7.898 8.783 7.733Q8.597 7.568 8.225 7.568Q7.967 7.568 7.718 7.649Q7.469 7.73 7.295 7.868L6.959 7.214Q7.223 7.028 7.592 6.926Q7.961 6.824 8.351 6.824ZM8.279 9.518Q8.519 9.518 8.705 9.407Q8.891 9.296 8.969 9.08L8.969 8.75L8.327 8.75Q7.751 8.75 7.751 9.128Q7.751 9.308 7.892 9.413Q8.033 9.518 8.279 9.518Z" />
            </g>
          </g>
        </g>
      </g>
    </g>
    <g id="QuickSwitchScheme-instance" transform="translate(9 9)">
      <g id="Group">
        <path d="M2.1 2.52778L2.1 4.08333L0 2.04167L2.1 0L2.1 1.55556L4.1 1.55556L4.1 2.52778L2.1 2.52778L2.1 2.52778Z" transform="translate(2.9 0)" id="Shape" fill="#6E6E6E" stroke="none" />
        <path d="M2 2.52778L2 4.08333L4.1 2.04167L2 0L2 1.55556L0 1.55556L0 2.52778L2 2.52778L2 2.52778Z" transform="translate(0 2.916667)" id="Shape" fill="#6E6E6E" stroke="none" />
      </g>
    </g>
  </g>
</svg>